<?xml version="1.0" standalone="no"?>
<!DOCTYPE svg PUBLIC "-//W3C//DTD SVG 20010904//EN"
 "http://www.w3.org/TR/2001/REC-SVG-20010904/DTD/svg10.dtd">
<svg version="1.0" xmlns="http://www.w3.org/2000/svg"
 width="260.000000pt" height="260.000000pt" viewBox="0 0 260.000000 260.000000"
 preserveAspectRatio="xMidYMid meet">
<metadata>
Created by potrace 1.11, written by Peter Selinger 2001-2013
</metadata>
<g transform="translate(0.000000,260.000000) scale(0.100000,-0.100000)"
fill="#000000" stroke="none">
<path d="M1302 2548 c-23 -4 -47 -10 -53 -13 -6 -4 -25 -9 -42 -11 -75 -10
-105 -16 -149 -32 -52 -18 -59 -27 -28 -37 55 -17 141 -164 139 -238 0 -29 -1
-30 -12 -13 -7 10 -25 38 -40 62 -59 91 -203 167 -317 167 -83 0 -124 -20
-183 -91 -33 -41 -35 -58 -3 -37 52 34 182 10 228 -41 22 -25 51 -94 40 -94
-5 0 -33 13 -63 30 -31 16 -64 31 -75 33 -10 1 -23 5 -29 8 -10 5 -90 10 -239
12 l-84 2 10 -25 c5 -14 15 -30 23 -36 12 -9 10 -13 -7 -25 -47 -31 -98 -94
-120 -146 -24 -58 -28 -60 -110 -38 -24 6 -29 3 -38 -21 -13 -34 -5 -77 19
-99 18 -15 22 -15 57 0 41 17 49 20 128 35 147 29 291 -22 339 -122 9 -18 14
-34 13 -35 -2 -2 -25 7 -52 19 -27 12 -56 24 -64 27 -19 6 -432 3 -438 -3 -10
-10 42 -68 84 -92 52 -31 56 -43 11 -42 -74 2 -144 -25 -189 -74 -27 -28 -30
-37 -30 -73 0 -35 3 -40 15 -24 11 15 49 39 61 39 3 0 -3 -18 -15 -39 -21 -41
-19 -81 7 -102 11 -9 24 -2 64 34 60 54 115 81 198 97 61 12 71 12 196 -15 29
-7 125 -67 131 -83 3 -9 -1 -12 -13 -8 -58 18 -183 24 -250 12 -143 -26 -307
-128 -351 -219 -25 -52 -26 -87 -5 -132 21 -46 60 -69 117 -71 l47 -2 0 36 c1
141 158 246 351 236 35 -2 67 -8 71 -12 5 -5 -35 -24 -89 -42 -135 -46 -195
-76 -247 -121 -101 -89 -156 -246 -121 -349 19 -55 75 -123 82 -100 6 18 113
124 118 118 3 -2 -2 -26 -11 -53 -26 -88 -38 -159 -31 -180 6 -13 14 -12 64
10 31 14 65 33 75 42 17 15 18 15 18 -1 0 -18 -63 -150 -82 -173 -20 -24 -2
-42 34 -34 43 11 124 49 139 67 17 21 24 17 25 -14 4 -125 57 -212 158 -258
50 -23 103 -27 100 -8 -1 5 -5 26 -8 47 -4 20 -4 37 0 37 12 0 101 -48 124
-66 40 -33 90 -88 95 -106 7 -20 32 -14 58 15 19 22 21 32 18 92 -1 22 2 35 6
29 16 -22 130 -93 193 -120 55 -23 79 -28 162 -28 53 -1 99 2 103 6 3 3 -3 24
-13 45 -11 21 -27 65 -35 97 l-16 58 37 -7 c46 -8 129 -52 150 -80 16 -20 21
-21 67 -10 52 12 91 29 113 51 20 20 42 80 42 114 0 30 1 31 38 23 84 -18 158
4 181 54 17 36 14 41 -23 41 -36 0 -120 48 -110 63 3 5 13 5 23 0 30 -17 96
-19 135 -6 36 13 96 60 96 76 0 4 -17 9 -37 11 -34 3 -38 6 -39 33 -1 17 -7
43 -13 59 -15 38 -5 66 23 66 28 0 104 -49 112 -72 8 -25 17 -22 37 11 33 56
13 155 -46 218 l-20 22 21 48 c11 26 18 51 14 54 -4 4 -37 9 -73 13 -57 5
-110 14 -184 30 -11 2 -40 12 -65 22 -102 40 -159 100 -165 173 -4 52 6 58 34
21 27 -37 67 -57 205 -104 120 -41 195 -77 221 -106 23 -26 35 -25 28 0 -11
40 88 48 117 10 l17 -23 18 27 c24 36 31 126 15 168 -7 18 -30 56 -50 83 -40
55 -41 75 -4 75 14 0 38 7 53 15 41 21 50 55 16 55 -7 0 -50 21 -96 46 -165
92 -209 114 -209 108 0 -4 -6 -2 -12 4 -25 19 -169 63 -225 67 -119 10 -143
21 -143 65 0 38 29 60 86 63 102 7 270 -67 390 -172 43 -36 90 -76 106 -89
l28 -23 0 38 c0 57 -26 148 -56 192 -27 42 -43 53 -84 57 -14 2 -45 8 -70 14
-102 24 -209 38 -265 33 -79 -6 -97 -9 -154 -26 -30 -9 -73 -17 -95 -17 l-41
0 50 -34 c64 -43 73 -54 81 -101 3 -21 10 -49 15 -62 11 -28 10 -28 -77 33
-43 31 -69 42 -85 39 -13 -3 -53 -10 -89 -16 -36 -5 -75 -14 -88 -20 l-23 -9
17 30 c10 16 15 33 11 36 -12 12 -75 -23 -93 -51 -17 -26 -22 -127 -11 -206
12 -85 31 -179 35 -174 3 3 5 62 4 132 l0 128 26 -30 c15 -17 41 -48 59 -69
l31 -39 35 70 35 69 89 13 c48 7 98 15 110 17 23 4 30 -8 39 -65 3 -20 6 -38
7 -41 5 -26 -74 -111 -177 -187 -16 -13 -25 -23 -18 -23 16 0 84 31 105 49 26
21 21 3 -24 -89 -41 -83 -45 -97 -52 -175 -2 -21 -8 -40 -13 -42 -6 -2 -23 19
-39 47 -17 27 -33 50 -37 50 -3 0 11 -43 32 -95 l39 -94 -23 -71 c-13 -39 -25
-73 -27 -75 -2 -1 -43 -6 -90 -10 l-87 -7 -71 53 c-39 30 -71 60 -72 69 0 8
-3 26 -6 40 -13 59 -11 62 66 102 64 33 90 50 148 99 10 8 10 17 -3 47 -9 20
-23 54 -32 75 -8 20 -19 37 -24 37 -5 0 -7 -4 -4 -8 3 -5 8 -31 12 -58 3 -27
8 -52 11 -56 7 -12 -17 -49 -28 -42 -6 3 -8 12 -5 20 3 7 -3 23 -13 35 -17 21
-20 21 -102 10 -60 -9 -99 -9 -138 -1 -70 13 -65 14 -101 -16 -24 -21 -28 -29
-18 -35 11 -7 10 -11 -2 -19 -8 -5 -18 -10 -22 -10 -7 0 -4 56 8 145 3 28 4
48 1 45 -7 -6 -67 -158 -67 -168 1 -25 51 -58 131 -88 104 -39 117 -46 114
-71 -11 -89 -18 -104 -72 -150 -51 -44 -58 -47 -121 -49 -37 -2 -79 -6 -94 -8
-24 -5 -30 2 -67 63 -23 37 -41 76 -41 88 0 11 13 59 30 106 16 48 30 90 30
94 0 5 -15 -18 -34 -51 -30 -53 -34 -56 -39 -35 -4 13 -7 41 -7 62 0 36 -52
188 -73 215 -19 24 2 23 47 -2 26 -14 49 -26 51 -26 3 0 -30 36 -73 81 -86 89
-104 120 -96 163 4 16 7 34 8 40 1 6 12 54 25 107 l22 96 151 114 c83 63 157
118 164 122 9 5 54 -9 120 -37 l106 -45 76 15 c43 8 93 17 112 20 19 3 37 8
39 10 2 2 33 -17 68 -41 35 -25 68 -45 72 -45 5 0 15 10 24 23 31 47 134 85
235 85 100 0 187 -24 349 -99 108 -49 177 -49 194 -1 8 22 7 23 -26 19 -29 -4
-48 3 -113 44 -42 26 -97 60 -120 75 -24 15 -68 37 -98 49 -63 25 -53 33 39
29 31 -1 57 1 57 6 0 4 -9 19 -21 34 -25 31 -79 56 -123 56 -54 0 -147 -29
-192 -60 -28 -19 -44 -25 -44 -16 0 19 56 93 80 106 23 12 26 38 7 64 -12 16
-18 17 -50 7 -39 -13 -112 -86 -128 -128 -16 -41 -28 -11 -18 44 9 49 53 133
69 133 6 0 10 5 10 10 0 6 -16 4 -37 -5 -21 -9 -39 -16 -40 -16 -30 3 -107
-62 -134 -114 -28 -53 -41 -58 -34 -12 9 51 53 134 87 162 l31 27 -39 -7
c-132 -22 -195 -83 -225 -218 -12 -58 -28 -84 -30 -50 0 10 -3 27 -5 38 -9 37
-6 129 6 172 29 102 176 174 263 129 46 -25 25 16 -27 49 -30 20 -115 27 -155
13 -14 -5 -28 -4 -36 2 -17 14 -70 18 -123 8z m145 -71 c13 -13 11 -17 -19
-38 -47 -33 -75 -66 -105 -124 -23 -44 -26 -62 -27 -152 -1 -64 -5 -102 -11
-100 -19 6 -57 141 -58 207 -1 110 24 167 93 209 39 23 103 22 127 -2z m753
-888 c100 -47 182 -120 212 -187 11 -24 17 -46 14 -49 -2 -3 -18 10 -35 29
-50 57 -156 106 -263 123 -76 11 -188 56 -188 75 0 14 40 33 85 40 51 7 118
-5 175 -31z m-1483 -458 c12 -6 6 -10 -23 -15 -61 -12 -156 -60 -200 -102 -23
-21 -69 -77 -104 -122 -68 -91 -87 -96 -76 -20 4 24 6 45 5 48 -3 6 50 90 65
105 36 35 94 70 146 89 62 23 162 32 187 17z m1310 -117 c31 -14 119 -41 194
-59 35 -8 98 -46 113 -67 18 -25 21 -64 6 -73 -5 -3 -10 -1 -10 5 0 26 -35 42
-130 60 -184 35 -257 85 -275 191 l-6 34 36 -36 c19 -20 52 -45 72 -55z
m-1297 -4 c0 -5 -5 -10 -10 -10 -24 0 -99 -92 -119 -145 -35 -93 -60 -135 -94
-155 -45 -28 -70 -27 -62 3 20 64 104 206 147 247 20 20 111 68 131 69 4 1 7
-3 7 -9z m1294 -195 c17 -14 50 -40 73 -58 23 -17 42 -36 43 -40 0 -12 -71 -6
-100 9 -14 7 -59 47 -100 88 l-75 76 64 -25 c35 -13 78 -36 95 -50z m-628 -64
c62 -36 76 -40 114 -35 l43 6 -7 -42 c-11 -70 -16 -74 -135 -104 l-110 -29
-100 28 c-55 15 -104 32 -109 39 -7 9 -32 93 -32 108 0 2 23 3 52 2 40 -2 61
4 92 24 96 61 92 61 192 3z m-596 -158 c-19 -40 -23 -63 -21 -136 2 -129 -25
-161 -67 -76 -33 66 -11 148 60 225 22 24 43 42 46 40 2 -3 -6 -27 -18 -53z"/>
<path d="M1060 1742 c0 -5 7 -15 15 -22 29 -24 -4 -27 -91 -8 -62 13 -90 15
-105 8 -41 -23 -150 -103 -145 -107 3 -3 18 -7 33 -8 15 -1 57 -8 92 -15 36
-6 73 -12 84 -13 13 -1 30 -23 54 -71 l35 -69 24 29 c14 16 32 39 40 52 9 12
20 22 25 22 5 0 9 -53 9 -117 0 -104 7 -143 16 -81 1 13 11 68 21 123 28 149
21 206 -28 252 -27 24 -79 41 -79 25z"/>
</g>
</svg>
