<?xml version="1.0" encoding="utf-8"?>
<!-- Generator: Adobe Illustrator 15.0.0, SVG Export Plug-In . SVG Version: 6.00 Build 0)  -->
<!DOCTYPE svg PUBLIC "-//W3C//DTD SVG 1.1//EN" "http://www.w3.org/Graphics/SVG/1.1/DTD/svg11.dtd">
<svg version="1.1" id="Warstwa_1" xmlns="http://www.w3.org/2000/svg" xmlns:xlink="http://www.w3.org/1999/xlink" x="0px" y="0px"
	 width="118px" height="95px" viewBox="0 0 118 95" enable-background="new 0 0 118 95" xml:space="preserve">
<path fill="#FFFFFF" d="M89.975,17.521H78.115C73.951,7.259,63.889,0,52.155,0h-24.13C12.571,0,0,12.572,0,28.024v6.836
	c0,10.433,5.743,19.529,14.224,24.348c0.446,3.213,0.835,7.894,0.072,11.708l-0.853,4.264l4.34-0.256
	c7.511-0.439,13.604-5.73,16.245-12.041h5.847c4.165,10.262,14.23,17.52,25.965,17.52h12.363C80.797,87.2,86.945,93.395,94.54,93.84
	l4.341,0.256l-0.854-4.264c-0.616-3.086-0.407-7.2-0.021-10.667C109.55,75.702,118,65.031,118,52.378v-6.835
	C118,30.091,105.43,17.521,89.975,17.521z M35.447,56.172c0-0.018,0.002-0.033,0.002-0.05h-6.712c0,4.341-3.032,8.608-7.316,10.918
	c0.144-5.373-1.162-12.422-1.162-12.422l-0.652-0.241C11.921,51.167,6.712,43.708,6.712,34.86v-6.836
	c0-11.752,9.561-21.313,21.313-21.313h24.13c7.925,0,14.84,4.364,18.507,10.809h-4.821c-15.448,0-28.015,12.57-28.015,28.022v6.835
	c0,1.287,0.095,2.553,0.264,3.794L35.447,56.172L35.447,56.172z M73.451,28.024v6.836c0,11.751-9.555,21.312-21.296,21.312h-7.259
	c-0.223-1.232-0.358-2.497-0.358-3.794v-6.835c0-11.751,9.556-21.311,21.303-21.311h7.253
	C73.316,25.465,73.451,26.729,73.451,28.024z M111.288,52.378c0,9.95-6.862,18.304-16.097,20.642l0.287-0.012l-3.271,0.764
	c-0.076,0.33-1.48,5.693-1.305,12.187c-4.283-2.31-8.086-7.946-8.086-12.287l-5.939-0.039c0,0.021,0.004,0.039,0.004,0.06h-11.04
	c-7.928,0-14.845-4.362-18.513-10.808h4.827c15.445,0,28.008-12.571,28.008-28.022v-6.836c0-1.287-0.095-2.551-0.265-3.792h10.076
	c11.752,0,21.313,9.56,21.313,21.311L111.288,52.378L111.288,52.378z"/>
</svg>
