<?xml version="1.0" encoding="utf-8"?>
<!-- Generator: Adobe Illustrator 15.0.0, SVG Export Plug-In . SVG Version: 6.00 Build 0)  -->
<!DOCTYPE svg PUBLIC "-//W3C//DTD SVG 1.1//EN" "http://www.w3.org/Graphics/SVG/1.1/DTD/svg11.dtd">
<svg version="1.1" id="Warstwa_1" xmlns="http://www.w3.org/2000/svg" xmlns:xlink="http://www.w3.org/1999/xlink" x="0px" y="0px"
	 width="118px" height="95px" viewBox="-12 -0.5 118 95" enable-background="new -12 -0.5 118 95" xml:space="preserve">
<path fill="#FFFFFF" d="M82.301,43.67c-4.011,0-7.503,2.211-9.337,5.479l-11.782-2.106c-0.035-5.368-2.726-10.098-6.82-12.953
	l4.393-12.735c0.328,0.029,0.656,0.05,0.99,0.05c5.906,0,10.699-4.792,10.699-10.702C70.443,4.791,65.65,0,59.743,0
	C53.832,0,49.04,4.791,49.04,10.701c0,3.19,1.401,6.047,3.621,8.007l-4.423,12.813c-0.96-0.181-1.947-0.287-2.958-0.287
	c-3.415,0-6.572,1.086-9.163,2.919L21.755,20.28c0.69-1.415,1.089-2.999,1.089-4.679C22.844,9.69,18.053,4.9,12.143,4.9
	c-5.911,0-10.7,4.791-10.7,10.701c0,5.909,4.789,10.701,10.7,10.701c1.813,0,3.521-0.455,5.018-1.252l14.462,13.97
	c-1.418,2.378-2.248,5.151-2.248,8.124c0,2.681,0.671,5.204,1.84,7.418L15.977,66.279c-1.56-0.887-3.357-1.398-5.276-1.398
	C4.79,64.88,0,69.669,0,75.58c0,5.916,4.79,10.703,10.7,10.703c5.911,0,10.701-4.787,10.701-10.703c0-1.566-0.343-3.049-0.949-4.389
	l15.016-11.543c2.705,2.123,6.107,3.401,9.813,3.401c1.468,0,2.882-0.215,4.231-0.586l6.211,13.011
	c-2.02,1.948-3.277,4.672-3.277,7.692c0,5.908,4.793,10.703,10.701,10.703c5.91,0,10.701-4.795,10.701-10.703
	c0-5.91-4.791-10.701-10.701-10.701c-0.498,0-0.99,0.048-1.473,0.111l-6.275-13.16c1.908-1.574,3.438-3.59,4.444-5.888l11.837,2.115
	c0.629,5.308,5.141,9.431,10.621,9.431C88.208,65.076,93,60.285,93,54.376C93,48.46,88.208,43.67,82.301,43.67z"/>
</svg>
