<?xml version="1.0" encoding="utf-8"?>
<!-- Generator: Adobe Illustrator 15.0.0, SVG Export Plug-In . SVG Version: 6.00 Build 0)  -->
<!DOCTYPE svg PUBLIC "-//W3C//DTD SVG 1.1//EN" "http://www.w3.org/Graphics/SVG/1.1/DTD/svg11.dtd">
<svg version="1.1" id="Warstwa_1" xmlns="http://www.w3.org/2000/svg" xmlns:xlink="http://www.w3.org/1999/xlink" x="0px" y="0px"
	 width="118px" height="95px" viewBox="-2 -4 118 95" enable-background="new -2 -4 118 95" xml:space="preserve">
<path fill="#FFFFFF" d="M17.89,29.035h18.872c2.604,0,4.718-2.15,4.718-4.756s-2.114-4.754-4.718-4.754H17.89
	c-2.604,0-4.718,2.149-4.718,4.754C13.171,26.885,15.286,29.035,17.89,29.035z"/>
<path fill="#FFFFFF" d="M38.156,59.184H17.89c-2.604,0-4.718,2.102-4.718,4.703c0,2.609,2.114,4.707,4.718,4.707h20.266
	c2.604,0,4.716-2.098,4.716-4.707C42.872,61.284,40.76,59.184,38.156,59.184z"/>
<path fill="#FFFFFF" d="M114,18.004c0-0.912-0.361-1.787-1.009-2.433L101.723,4.303c-1.289-1.291-3.574-1.291-4.865,0L77.295,23.867
	V19.36L58.396,0H10.549C4.71,0,0,4.732,0,10.569v65.63c0,5.839,4.71,10.603,10.549,10.603h56.196c5.839,0,10.55-4.764,10.55-10.603
	V56.134l35.696-35.696C113.639,19.792,114,18.917,114,18.004z M66.745,79.215H10.549c-1.674,0-3.064-1.339-3.064-3.016v-65.63
	c0-1.675,1.391-3.084,3.064-3.084h44.184v8.496c0,3.735,3.027,6.774,6.762,6.813l8.315,0.085v8.476l-9.703,9.702
	c-0.744-0.497-1.633-0.792-2.59-0.792H17.89c-2.604,0-4.718,2.151-4.718,4.756c0,2.604,2.114,4.752,4.718,4.752h35.401L47.35,66.074
	c-0.466,1.277-0.136,2.711,0.843,3.654c0.654,0.631,1.515,0.965,2.391,0.965c0.433,0,0.873-0.082,1.291-0.252l17.936-7.271v13.028
	C69.811,77.876,68.418,79.215,66.745,79.215z M66.682,57.016l-10.214,4.139l3.859-10.584L99.29,11.602l6.401,6.402L66.682,57.016z"
	/>
</svg>
