<?xml version="1.0" encoding="utf-8"?>
<!-- Generator: Adobe Illustrator 15.0.0, SVG Export Plug-In . SVG Version: 6.00 Build 0)  -->
<!DOCTYPE svg PUBLIC "-//W3C//DTD SVG 1.1//EN" "http://www.w3.org/Graphics/SVG/1.1/DTD/svg11.dtd">
<svg version="1.1" id="Warstwa_1" xmlns="http://www.w3.org/2000/svg" xmlns:xlink="http://www.w3.org/1999/xlink" x="0px" y="0px"
	 width="118px" height="95px" viewBox="-12 -10.5 118 95" enable-background="new -12 -10.5 118 95" xml:space="preserve">
<path fill="#FFFFFF" d="M0,51.852c0.038,12.258,9.956,22.144,22.214,22.144c12.273,0,22.22-9.95,22.22-22.22V38.997
	c0.831-0.017,1.686-0.011,2.566-0.011c0.878,0,1.734-0.006,2.564,0.011v12.778c0,12.269,9.949,22.219,22.221,22.219
	c12.259,0,22.178-9.885,22.215-22.145c0.014-3.531-0.801-6.869-2.253-9.838L77.813,12.325c-0.637-1.359-1.229-2.74-1.84-4.115
	C73.848,3.405,69.053,0.041,63.467,0C55.82-0.058,49.564,6.335,49.564,13.98v5.52c-0.83-0.158-1.687-0.244-2.564-0.244
	c-0.88,0-1.735,0.085-2.566,0.244v-5.52c0-7.645-6.257-14.038-13.901-13.979c-5.584,0.04-10.378,3.404-12.504,8.209
	c-0.611,1.375-1.203,2.755-1.842,4.115L2.254,42.014C0.8,44.98-0.014,48.318,0,51.852L0,51.852z M71.999,34.671
	c9.45,0,17.106,7.66,17.106,17.104c0,9.451-7.656,17.108-17.106,17.108c-9.446,0-17.104-7.657-17.104-17.108
	C54.895,42.331,62.555,34.671,71.999,34.671L71.999,34.671z M22.153,34.671c9.444,0,17.106,7.66,17.106,17.104
	c0,9.451-7.663,17.108-17.106,17.108c-9.451,0-17.112-7.657-17.112-17.108C5.041,42.331,12.702,34.671,22.153,34.671L22.153,34.671z
	"/>
<path fill="#FFFFFF" d="M15.404,45.973c1.07,2.076,1.614,4.354,2.279,6.578c0.598,2.016,1.424,4.021,2.663,5.641
	c2.062,2.693,4.954,4.56,8.198,5.365c4.174-2.268,7.007-6.69,7.007-11.781c0-7.398-5.999-13.397-13.398-13.397
	c-3.749,0-7.133,1.537-9.565,4.013C13.759,43.352,14.692,44.582,15.404,45.973L15.404,45.973z"/>
<path fill="#FFFFFF" d="M65.471,45.87c1.069,2.082,1.615,4.354,2.277,6.588c0.602,2.008,1.427,4.013,2.667,5.633
	c2.058,2.691,4.95,4.56,8.194,5.37c4.174-2.27,7.01-6.697,7.01-11.787c0-7.398-6-13.402-13.401-13.402
	c-3.745,0-7.132,1.541-9.563,4.018C63.826,43.246,64.759,44.48,65.471,45.87L65.471,45.87z"/>
</svg>
