<?xml version="1.0" encoding="utf-8"?>
<!-- Generator: Adobe Illustrator 15.0.0, SVG Export Plug-In  -->
<!DOCTYPE svg PUBLIC "-//W3C//DTD SVG 1.1//EN" "http://www.w3.org/Graphics/SVG/1.1/DTD/svg11.dtd" [
	<!ENTITY ns_flows "http://ns.adobe.com/Flows/1.0/">
]>
<svg version="1.1"
	 xmlns="http://www.w3.org/2000/svg" xmlns:xlink="http://www.w3.org/1999/xlink" xmlns:a="http://ns.adobe.com/AdobeSVGViewerExtensions/3.0/"
	 x="0px" y="0px" width="65px" height="82px" viewBox="0.119 0 65 82" enable-background="new 0.119 0 65 82" xml:space="preserve">
<defs>
</defs>
<path fill-rule="evenodd" clip-rule="evenodd" fill="#FFFFFF" d="M55.538,69.221c-5.833,2.552-11.802,4.961-17.638,7.506
	c-0.062,1.189,0.158,2.66-0.187,3.564c-2.998,2.238-6.984,2.318-9.946,0c-0.4-0.789-0.091-2.286-0.187-3.378
	c-5.812-2.694-12.037-4.977-17.823-7.692c-3.212,2.093-6.446,1.634-9.57-0.562c0-13.433,0-26.332,0-39.964
	c0-6.04-1.193-13.676,2.439-16.324c1.738-1.264,4.689-2.167,7.13-3.189c6.736-2.821,15.176-6.76,21.576-9.005
	c2.462-0.865,6.094,1.664,8.817,2.814c5.259,2.219,10.26,4.323,15.573,6.567c3.511,1.48,7.959,2.275,9.009,5.816
	c1.019,3.459,0.185,9.092,0.185,13.322c0,13.341,0.155,26.861-0.185,39.964c-1.224,1.278-3.396,1.607-5.071,2.439
	C58.398,70.361,56.827,69.932,55.538,69.221z M4.125,21.379c-0.767,0.889,0.354,2.043,0.563,3.563c0.245,1.748,0.281,4.561,0,6.191
	c-0.135,0.791-0.652,1.442-0.75,2.066c-0.303,1.923,0,4.882,0,7.69c0,2.629-0.344,5.64,0,7.693c0.12,0.718,0.637,1.359,0.75,2.064
	c0.308,1.913,0.254,4.544,0,6.193c-0.165,1.075-0.839,1.889-0.75,2.812c0.23,2.382,2.99,3.031,5.627,4.127
	c4.976,2.065,9.069,3.876,13.699,5.818c2.236,0.938,4.355,2.54,6.943,2.438c0.679-9,0.373-19.897,0.373-29.644
	c0-3.125,0.642-7.728-0.187-9.943c-0.563-1.506-3.431-2.644-5.627-3.565c-6.847-2.865-13.339-5.733-20.079-8.067
	C4.419,20.92,4.233,21.108,4.125,21.379z"/>
<path fill-rule="evenodd" clip-rule="evenodd" fill="#FFFFFF" d="M11.446,37.514c7.756-2.342,9.714,13.996,1.874,13.133
	c-0.837-0.094-1.134-0.741-2.062-0.939c-0.714-0.149-1.823,0.227-2.438,0c-2.382-0.869-3.685-5.045-2.251-7.693
	c0.485-0.9,1.368-0.82,2.064-1.499C9.634,39.536,9.865,37.479,11.446,37.514z M10.13,48.583c2.979-0.344,2.572-7.727-1.312-6.754
	C5.494,42.66,7.024,48.941,10.13,48.583z"/>
<path fill-rule="evenodd" clip-rule="evenodd" fill="#FFFFFF" d="M25.893,46.896c-0.963,0.149-1.427-0.202-2.064-0.377
	c-1.097,2.151,1.153,11.811-3.004,9.57c-1.219-0.66-1.109-5.831-0.749-8.631c0.3-2.339,1.491-3.327,2.438-4.13
	C23.178,36.261,30.573,44.313,25.893,46.896z"/>
</svg>
