<?xml version="1.0" encoding="utf-8"?>
<!-- Generator: Adobe Illustrator 15.0.0, SVG Export Plug-In . SVG Version: 6.00 Build 0)  -->
<!DOCTYPE svg PUBLIC "-//W3C//DTD SVG 1.1//EN" "http://www.w3.org/Graphics/SVG/1.1/DTD/svg11.dtd">
<svg version="1.1" id="Warstwa_1" xmlns="http://www.w3.org/2000/svg" xmlns:xlink="http://www.w3.org/1999/xlink" x="0px" y="0px"
	 width="170px" height="170px" viewBox="-17 -17 170 170" enable-background="new -17 -17 170 170" xml:space="preserve">
<path fill="#FFFFFF" d="M132.982,0H3.019C1.355,0,0,1.354,0,3.019v129.963C0,134.654,1.355,136,3.019,136h129.963
	c1.67,0,3.018-1.346,3.018-3.018V3.019C136,1.346,134.652,0,132.982,0L132.982,0z M118.503,115.486c0,1.664-1.354,3.019-3.017,3.019
	h-94.97c-1.665,0-3.019-1.354-3.019-3.019v-9.93c0-1.619,1.28-2.93,2.883-3.006h7.334c1.663,0,3.013-1.353,3.013-3.017V80.934
	c0-1.664-1.35-3.011-3.013-3.011h-7.199v-0.021c-1.665,0-3.019-1.35-3.019-3.012v-13.78c0-1.633,1.304-2.96,2.93-3.004h7.288
	c1.663,0,3.013-1.354,3.013-3.018V36.487c0-1.664-1.35-3.009-3.013-3.009h-7.199v-0.016c-1.665,0-3.019-1.354-3.019-3.02v-9.928
	c0-1.665,1.354-3.02,3.019-3.02h94.971c1.662,0,3.017,1.355,3.017,3.02V115.486L118.503,115.486z"/>
<path fill="#FFFFFF" d="M82.325,37.225c-16.769,0-30.399,13.639-30.399,30.4c0,16.76,13.63,30.402,30.399,30.402
	c16.76,0,30.399-13.643,30.399-30.402C112.727,50.863,99.085,37.225,82.325,37.225L82.325,37.225z M82.325,88.809
	c-11.69,0-21.195-9.502-21.195-21.184c0-11.681,9.504-21.191,21.195-21.191c11.68,0,21.183,9.511,21.183,21.191
	C103.508,79.307,94.005,88.809,82.325,88.809L82.325,88.809z"/>
<path fill="#FFFFFF" d="M87.854,68.854c-0.154,0.449-0.531,0.793-0.994,0.906c-0.471,0.117-0.955-0.016-1.311-0.347l-5.182-4.925
	c-0.346-0.331-0.504-0.816-0.413-1.288c0.089-0.47,0.413-0.869,0.854-1.046l8.002-3.236c-4.344-3.248-10.526-2.807-14.354,1.221
	c-4.138,4.349-3.959,11.224,0.392,15.353c4.342,4.132,11.219,3.962,15.348-0.391c3.834-4.033,3.961-10.223,0.494-14.403
	L87.854,68.854z"/>
</svg>
