<?xml version="1.0" encoding="utf-8"?>
<!-- Generator: Adobe Illustrator 15.0.0, SVG Export Plug-In . SVG Version: 6.00 Build 0)  -->
<!DOCTYPE svg PUBLIC "-//W3C//DTD SVG 1.1//EN" "http://www.w3.org/Graphics/SVG/1.1/DTD/svg11.dtd">
<svg version="1.1" id="Warstwa_1" xmlns="http://www.w3.org/2000/svg" xmlns:xlink="http://www.w3.org/1999/xlink" x="0px" y="0px"
	 width="170px" height="170px" viewBox="-5 -5 170 170" enable-background="new -5 -5 170 170" xml:space="preserve">
<path fill="#FFFFFF" d="M112.582,69.491c0,11.073-1.541,20.299-4.625,27.674c-3.084,7.376-7.609,12.813-13.575,16.308
	c1.078,1.885,2.025,3.414,2.841,4.586c0.813,1.17,1.592,2.086,2.332,2.746c0.742,0.656,1.492,1.1,2.252,1.33
	s1.616,0.346,2.567,0.346c1.245,0,2.681-0.172,4.31-0.51c1.629-0.341,3.568-0.957,5.821-1.854l3.485,14.056
	c-3.221,1.759-6.51,3.058-9.87,3.899c-3.356,0.842-6.63,1.263-9.813,1.263c-1.445,0-2.781-0.108-4.011-0.33
	c-1.224-0.221-2.403-0.616-3.538-1.194c-1.137-0.574-2.24-1.367-3.308-2.373c-1.072-1.01-2.175-2.293-3.312-3.856
	c-1.135-1.565-2.324-3.447-3.568-5.646c-1.244-2.193-2.599-4.775-4.063-7.74h-1.345c-5.509,0-10.227-0.637-14.153-1.907
	c-3.925-1.272-7.137-3.254-9.636-5.945c-2.498-2.688-4.334-6.125-5.505-10.309c-1.171-4.183-1.756-9.183-1.756-15.004
	c0-7.394,0.764-14.073,2.292-20.04c1.529-5.966,3.838-11.05,6.932-15.251c3.093-4.2,6.978-7.43,11.654-9.691
	c4.676-2.259,10.163-3.391,16.458-3.391c5.289,0,9.885,0.627,13.781,1.88c3.896,1.255,7.135,3.208,9.705,5.862
	c2.571,2.653,4.488,6.054,5.752,10.199C111.95,58.743,112.582,63.708,112.582,69.491z M93.007,71.193
	c0-3.44-0.251-6.332-0.755-8.675c-0.505-2.342-1.29-4.243-2.359-5.697c-1.07-1.454-2.43-2.498-4.086-3.129
	c-1.654-0.632-3.635-0.947-5.938-0.947c-2.761,0-5.157,0.59-7.188,1.771c-2.029,1.181-3.711,3.024-5.046,5.532
	c-1.335,2.508-2.327,5.72-2.977,9.636c-0.649,3.917-0.973,8.62-0.973,14.11c0,3.187,0.209,5.927,0.629,8.224
	c0.422,2.299,1.13,4.196,2.127,5.695c0.996,1.502,2.322,2.609,3.977,3.322c1.655,0.715,3.716,1.07,6.186,1.07
	c1.646,0,3.195-0.201,4.648-0.603c1.454-0.401,2.784-1.081,3.992-2.03c1.206-0.953,2.291-2.201,3.263-3.75
	c0.97-1.546,1.783-3.469,2.44-5.765c0.658-2.297,1.166-4.991,1.521-8.086C92.828,78.781,93.007,75.221,93.007,71.193z"/>
<path fill="#FFFFFF" d="M160,80.001l-5.939-11.729l2.026-12.991l-9.274-9.321l-2.09-12.98l-11.703-6l-5.998-11.7l-12.98-2.088
	l-9.318-9.274L91.73,5.943L80,0L68.27,5.943L55.282,3.917l-9.321,9.274L32.979,15.28l-6,11.7L15.28,32.979l-2.089,12.98L3.917,55.28
	l2.027,12.991L0,80.001l5.943,11.731l-2.026,12.988l9.274,9.321l2.089,12.979l11.699,6l6,11.699l12.981,2.09l9.321,9.275
	l12.989-2.025L80,160l11.73-5.939l12.992,2.026l9.317-9.274l12.979-2.09l6.002-11.701l11.699-5.998l2.09-12.98l9.275-9.322
	l-2.025-12.988L160,80.001z M148.645,102.307l-8.369,8.405l-1.883,11.71l-10.556,5.413l-3.817,7.444l0.428,1.731l-1.827,0.996
	l-0.196,0.386l-0.719,0.112l-1.041,0.568c-3.619,1.977-7.383,3.46-11.186,4.413c-0.854,0.216-1.711,0.398-2.562,0.563l-4.612,4.594
	l-11.721-1.828L80,152.176l-10.582-5.359L57.7,148.645l-8.41-8.369l-11.712-1.883l-5.412-10.556l-10.556-5.415l-1.885-11.71
	l-8.366-8.405l1.828-11.723l-5.36-10.583l5.36-10.582l-1.829-11.721l8.367-8.41l1.885-11.711l10.556-5.412l5.412-10.556
	l11.712-1.884l8.41-8.367l11.719,1.828L80,7.827l10.583,5.36l11.724-1.828l8.404,8.367l11.713,1.884l5.414,10.556l10.557,5.412
	l1.883,11.711l8.369,8.41l-1.83,11.72l5.361,10.583l-5.361,10.583L148.645,102.307z"/>
<path fill="#FFFFFF" d="M83.623,139.504c-1.146-1.076-2.27-2.357-3.418-3.871c-0.069,0-0.136,0.006-0.205,0.006
	c-30.678,0-55.637-24.957-55.637-55.638c0-30.678,24.959-55.636,55.637-55.636c30.678,0,55.637,24.958,55.637,55.636
	c0,15.034-6.003,28.687-15.728,38.71l0.016,0.061l1.541,6.222c12.138-11.196,19.757-27.218,19.757-44.992
	c0-33.758-27.466-61.221-61.223-61.221c-33.758,0-61.222,27.463-61.222,61.221S46.242,141.225,80,141.225
	c1.813,0,3.602-0.097,5.374-0.25C84.779,140.521,84.189,140.039,83.623,139.504z"/>
</svg>
