<?xml version="1.0" encoding="utf-8"?>
<!-- Generator: Adobe Illustrator 15.0.0, SVG Export Plug-In  -->
<!DOCTYPE svg PUBLIC "-//W3C//DTD SVG 1.1//EN" "http://www.w3.org/Graphics/SVG/1.1/DTD/svg11.dtd" [
	<!ENTITY ns_flows "http://ns.adobe.com/Flows/1.0/">
]>
<svg version="1.1"
	 xmlns="http://www.w3.org/2000/svg" xmlns:xlink="http://www.w3.org/1999/xlink" xmlns:a="http://ns.adobe.com/AdobeSVGViewerExtensions/3.0/"
	 x="0px" y="0px" width="84px" height="84px" viewBox="0 -0.229 84 84" enable-background="new 0 -0.229 84 84"
	 xml:space="preserve">
<defs>
</defs>
<path fill="#FFFFFF" d="M47.38,59.73c0,0-3.256-1.758-4.621-2.603c-0.293-0.059-0.559-0.093-0.776-0.083
	c-0.298,0.016-0.613,0.069-0.934,0.14c-0.997,0.687-2.007,1.348-3.05,1.971l-0.392,0.234l-3.116-0.118
	c0.221,0.786,0.602,2.17,0.993,3.733l6.602,1.78l7.077-1.881l0.793-3.566L47.38,59.73z"/>
<path fill="#FFFFFF" d="M43.541,2.38c1.242,0,2.405,0.265,2.814,0.784c0.68-0.385,1.75-0.551,2.72-0.551
	c0.626,0,1.211,0.069,1.624,0.192c1.053,0.312,2.739,1.197,2.938,2.817c-0.479,0.12-1.268,0.524-0.093,0.565
	c0.347,0.012,0.439,0.378,0.622,0.397c2.818,0.28,6.447,0.833,7.544,5.005c0.485,0.339,0.902,0.872,1.37,1.558
	c0.185-0.046,0.365-0.102,0.55-0.133c0.426-0.075,0.858-0.113,1.289-0.113c0.9,0,1.798,0.165,2.637,0.497
	c1.219,0.491,2.392,1.394,2.821,2.686c-0.689-0.084-1.293-0.114-1.855-0.114c-0.514,0-0.992,0.024-1.47,0.053
	c-0.634,0.042-1.242,0.112-1.843,0.194c0.02,0.024,0.034,0.045,0.053,0.069c0.979,0.26,1.896,0.588,2.747,0.948
	c2.206,0.94,4.059,2.42,5.801,3.539c0.869,0.554,2.053,1.203,2.546,1.402c0.096,0.039,0.24,0.055,0.412,0.055
	c0.586,0,1.484-0.188,1.794-0.288c0.036,0.257,0.036,0.538-0.063,0.828c-0.095,0.292-0.324,0.57-0.604,0.752
	c-0.567,0.373-1.186,0.478-1.761,0.566c-0.412,0.054-0.817,0.083-1.216,0.104c2.98,1.768,4.093,5.938,3.738,10.159
	c0,0,1.868,1.084,2.069,1.182c0.124,0.065,0.344,0.103,0.553,0.103c0.125,0,0.246-0.013,0.34-0.042
	c0.033,1.052-1.461,2.086-3.078,2.086c-0.138,0-0.276-0.008-0.417-0.023c-0.101,0.38-0.21,0.518-0.331,0.895
	c0.018,0.022,0.036,0.043,0.054,0.065c5.411,5.405,2.299,9.645,1.44,9.97c-0.163-1.188-0.917-1.551-1.821-1.551
	c-0.735,0-1.57,0.24-2.266,0.473c0.747,2.641,0.073,3.395-0.999,5.281c0.28,0.291,0.552,0.595,0.821,0.924
	c0.808,1.028,1.58,2.312,1.802,3.819c0.238,1.503-0.271,3.017-1.268,3.847c-0.453-1.246-1.146-1.698-1.842-2.143
	c-0.665-0.447-1.943-0.843-2.715-0.843c-0.007,0-0.012,0-0.019,0c-0.162,0.399-0.313,0.806-0.434,1.239
	c0.415,0.734,0.74,1.589,0.766,2.541c0,0.401-0.062,0.797-0.177,1.162c0.678,0.201,1.496,0.278,2.438,0.278
	c0.075,0,0.152,0,0.229-0.001c-0.573,1.111-1.585,2.03-2.948,2.49c-0.575,0.2-1.195,0.293-1.822,0.293
	c-0.856,0-1.724-0.17-2.502-0.463c-0.15-0.054-0.288-0.125-0.43-0.188c-0.199,0.128-0.402,0.252-0.602,0.373
	c0.476,0.367,0.954,0.722,1.439,1.036c0.422,0.272,0.825,0.515,1.324,0.699c0.252,0.093,0.542,0.153,0.878,0.153
	c0.329,0,0.703-0.058,1.125-0.198c0.1,0.885-0.416,1.841-1.248,2.434c-0.829,0.596-1.857,0.837-2.8,0.856c-0.016,0-0.03,0-0.046,0
	c-1.09,0-2.11-0.249-3.042-0.667c0.451,4.888-2.948,6.234-6.437,6.556c-0.646-1.411-3.237-3.05-6.126-3.281
	c-0.121,1.064,0.974,4.497,2.096,6.081c-1.118,0.321-2.218,0.461-3.284,0.461c-5.364,0-9.859-3.522-11.417-5.062
	c-0.434,0.652,1.363,3.941-2.102,5.072c0-0.801-2.435-4.441-7.459-6.137c0.376,1.038,0.588,2.229,0.59,3.332
	c-6.714-0.297-8.545-6.78-7.842-10.209c-0.809,1.581-4.476,3.16-6.092,3.16c-0.215,0-0.394-0.027-0.525-0.088
	c0.308-1.191,3.063-5.003,2.993-6.983c-0.88,0.88-3.905,2.444-4.834,2.444c-0.117,0-0.201-0.025-0.243-0.079
	c-0.374-0.486,0.945-5.787,1.743-7.626c-1.433,0.813-3.932,2.554-3.987,4.277c-5.335-4.255-1.914-9.838-1.1-11.774
	c-0.551,0.268-1.162,0.434-1.815,0.434c-2.258,0-4.087-1.805-4.146-4.048c-0.007-0.057-0.026-0.114-0.029-0.169
	c-0.025-0.398,0.098-0.931,0.332-1.515c0.011-0.029,0.022-0.056,0.034-0.082c0.567-1.364,1.78-3.036,3.561-4.265
	c-4.35-2.722-3.507-4.329-1.779-6.532c-0.952,0.059-2.023,0.596-2.688,1.656c-0.347-0.864-0.228-2.005,0.399-2.914
	c0.62-0.909,1.556-1.51,2.471-1.905c1.536-0.636,3.101-0.837,4.622-0.837c0.125,0,0.25,0.001,0.375,0.004
	c-0.07-0.219-0.122-0.425-0.182-0.638c-0.665-0.256-1.339-0.591-1.999-1.056c-0.998-0.726-1.978-1.75-2.324-3.237
	c1-0.221,1.79-0.373,2.526-0.472c-0.589-0.37-1.175-0.797-1.727-1.372c-0.38-0.419-0.682-1.012-0.745-1.619
	c-0.132-1.271,0.691-2.044,0.919-2.178c0.591,0.526,1.68,0.633,2.468,0.633c0.54,0,0.938-0.05,0.938-0.05
	c0.803-3.101,2.733-5.21,5.009-6.532c-0.254-0.129-0.501-0.283-0.722-0.475c-0.438-0.382-0.69-1.348-0.793-1.899l0.244-0.067
	c0.541,0.371,0.965,0.492,1.358,0.492c0.042,0,0.083-0.001,0.125-0.004c0.021,0,0.042,0.001,0.063,0.001
	c0.375,0,0.752-0.081,1.146-0.112c0.607-0.061,1.286-0.103,2.003-0.103c0.147,0,0.297,0.001,0.447,0.005
	c1.41-2.953,3.201-5.661,7.114-5.661c1.15,0,2.485,0.235,4.046,0.766c2.932-2.513,6.289-3.486,9.744-3.517
	C40.78,2.687,42.206,2.38,43.541,2.38 M43.542,0L43.542,0c-0.84,0-2.72,0.105-4.209,0.951c-3.575,0.16-6.753,1.246-9.475,3.236
	c-1.265-0.34-2.435-0.506-3.547-0.506c-4.868,0-7.319,3.331-8.592,5.681c-0.392,0.019-0.789,0.047-1.188,0.087
	c-0.185,0.016-0.367,0.039-0.547,0.062c-0.145,0.019-0.31,0.041-0.383,0.041l-0.091-0.002C15.481,9.534,15.446,9.512,15.4,9.48
	l-0.909-0.624l-1.064,0.29l-0.245,0.066L11.065,9.79l0.404,2.158c0.104,0.555,0.242,1.054,0.414,1.498
	c-1.432,1.274-2.535,2.819-3.271,4.582c-0.093-0.017-0.161-0.034-0.205-0.049l-1.204-1.07l-1.491,0.869
	c-0.969,0.563-2.324,2.222-2.089,4.48c0.043,0.411,0.142,0.824,0.291,1.225l-0.842,0.185l0.545,2.346
	c0.241,1.035,0.7,1.986,1.374,2.847c-0.154,0.057-0.308,0.116-0.458,0.179c-1.554,0.669-2.729,1.594-3.526,2.76
	c-1.052,1.529-1.301,3.502-0.643,5.144l1.741,4.342l0.567-0.904c0.198,0.247,0.415,0.482,0.643,0.706
	c-0.866,0.983-1.567,2.076-2.033,3.197L1.27,44.309l-0.01,0.025l-0.039,0.098c-0.364,0.907-0.531,1.766-0.482,2.515
	c0.008,0.114,0.021,0.212,0.034,0.289c0.162,2.843,2.089,5.162,4.704,5.905c-0.957,3.086-1.271,7.47,3.243,11.072l1.286,1.024
	c-0.012,0.856,0.173,1.415,0.556,1.913c0.494,0.642,1.271,1.01,2.13,1.01c0.066,0,0.135-0.003,0.206-0.009
	c-0.334,0.635-0.55,1.111-0.668,1.572l-0.499,1.933l1.815,0.828c0.446,0.204,0.941,0.303,1.513,0.303
	c1.041,0,2.528-0.381,3.972-1.028c0.373,1.443,1.024,2.902,2.022,4.181c1.873,2.403,4.582,3.752,7.833,3.894l2.49,0.112
	l-0.002-1.567c1.193,0.936,1.876,1.846,2.107,2.243v2.921l3.119-1.02c1.88-0.613,2.862-1.679,3.356-2.797
	c2.348,1.461,5.625,2.903,9.424,2.903c1.339,0,2.664-0.187,3.941-0.553l3.226-0.927l-1.166-1.645l1.531-0.146
	c2.568-0.236,4.521-0.916,5.969-2.079c0.936-0.751,1.958-1.964,2.42-3.839c0.289,0.026,0.581,0.04,0.872,0.04h0.061
	c1.13-0.024,2.735-0.27,4.175-1.307c1.449-1.03,2.291-2.633,2.25-4.248c1.401-0.708,2.544-1.826,3.261-3.222l0.479-0.929l0.68-0.565
	c1.642-1.364,2.465-3.739,2.096-6.051c-0.229-1.568-0.912-3.104-2.083-4.659c0.118-0.232,0.226-0.463,0.322-0.694l2.718-0.993
	c1.352-0.513,2.598-2.277,3.029-4.291c0.314-1.466,0.411-4.116-1.648-7.201c0.5-0.268,0.951-0.603,1.33-0.994
	c0.778-0.803,1.188-1.801,1.156-2.809l-0.099-3.108l-2.513,0.767c-0.087-0.048-0.182-0.103-0.284-0.162
	c0.03-2.946-0.595-5.554-1.779-7.585c0.679-0.48,1.189-1.158,1.438-1.919c0.197-0.575,0.253-1.225,0.157-1.902l-0.396-2.802
	l-2.693,0.872c-0.162,0.048-0.573,0.127-0.861,0.158c-0.433-0.217-1.197-0.637-1.877-1.07c-0.44-0.283-0.894-0.594-1.359-0.915
	c-0.11-0.075-0.221-0.15-0.333-0.227l-0.762-2.292c-0.601-1.803-2.128-3.313-4.193-4.143c-1.121-0.445-2.303-0.669-3.523-0.669
	c-0.276,0-0.551,0.012-0.827,0.035c-0.1-0.11-0.202-0.218-0.308-0.323c-1.52-4.377-5.409-5.476-7.999-5.854
	c-0.686-2.064-2.646-3.333-4.411-3.855c-0.804-0.24-1.694-0.29-2.3-0.29c-0.582,0-1.509,0.048-2.449,0.293
	C45.629,0.112,44.485,0,43.542,0L43.542,0z M54.948,78.895l-0.341-0.483c-0.172-0.241-0.346-0.553-0.512-0.898
	c0.225,0.185,0.375,0.35,0.438,0.471L54.948,78.895L54.948,78.895z"/>
<path fill="#FFFFFF" d="M22.184,42.964c-1.369,0.664-2.743,1.082-4.054,1.526c-1.314,0.437-2.574,0.862-3.734,1.396
	c-1.159,0.532-2.206,1.16-3.127,2.013c-0.934,0.845-1.709,1.938-2.493,3.24c-0.266-1.494,0.066-3.114,0.928-4.492
	c0.856-1.386,2.207-2.437,3.632-3.078c1.436-0.653,2.95-0.956,4.433-1.042C19.257,42.454,20.72,42.578,22.184,42.964z"/>
<path fill="#FFFFFF" d="M27.159,61.924c-0.958,1.577-1.782,3.523-1.454,5.412c0.164,0.945,0.187,1.792,0.013,2.747
	c-0.138,0.823-0.194,1.97-1.138,1.127c-3.039-2.727-0.405-7.667,2.392-9.463L27.159,61.924
	C26.694,62.687,27.159,61.924,27.159,61.924z"/>
<path fill="#FFFFFF" d="M29.984,5.131c4.481-1.543,8.399,4.853,7.868,8.639c-0.309,0.097-1.026-1.942-1.294-2.336
	c-0.652-0.964-1.49-1.825-2.431-2.512c-1.615-1.18-3.543-2.153-5.503-2.588L29.984,5.131C30.572,4.929,29.984,5.131,29.984,5.131z"
	/>
<path fill="#FFFFFF" d="M44.677,15.622c-1.013-3.129-1.03-7.479,1.782-9.709c1.964-1.559,6.427-2.604,7.697,0.431
	c-0.169,0.615-2.769,0.725-3.457,0.951c-0.862,0.284-1.706,0.666-2.45,1.189c-2.221,1.555-2.884,4.585-3.193,7.104L44.677,15.622
	C44.241,14.282,44.677,15.622,44.677,15.622z"/>
<path fill="#FFFFFF" d="M41.482,17.804c-1.594-3.035-2.237-6.608-1.354-9.951c0.739-2.792,4.206-4.965,6.794-2.883
	c0.104,0.464-1.705,1.363-2.106,1.751c-0.785,0.761-1.441,1.657-1.979,2.607c-1.389,2.462-1.268,5.662-1.028,8.382L41.482,17.804
	C40.838,16.574,41.482,17.804,41.482,17.804z"/>
<path fill="#FFFFFF" d="M49.933,13.832c-0.146-2.653,1.329-4.997,3.288-6.646c1.809-1.522,4.852-2.638,6.792-0.6
	c-0.017,0.487-1.996,0.979-2.467,1.182c-1.003,0.428-2.078,0.68-3.064,1.129c-2.053,0.936-3.632,2.836-4.295,4.972L49.933,13.832
	C49.87,12.672,49.933,13.832,49.933,13.832z"/>
<path fill="#FFFFFF" d="M55.02,14.434c-0.328-2.913,1.366-5.405,3.461-7.217c1.839-1.59,4.946-2.294,6.671-0.063
	c-0.019,0.618-1.461,1.075-1.955,1.349c-1.006,0.559-1.953,0.852-3.043,1.183c-2.217,0.672-4.003,2.685-4.799,4.799L55.02,14.434
	C54.886,13.263,55.02,14.434,55.02,14.434z"/>
<path fill="#FFFFFF" d="M58.387,15.559c0.982-2.837,3.841-4.578,6.672-5.092c2.317-0.42,5.04,0.249,5.607,2.898
	c-0.225,0.516-1.532-0.087-1.986-0.172c-0.937-0.176-1.885-0.241-2.832-0.183c-2.554,0.157-5.304,0.939-7.179,2.74L58.387,15.559
	C58.772,14.446,58.387,15.559,58.387,15.559z"/>
<path fill="#FFFFFF" d="M53.814,23.62c-0.39-0.608,0.808-1.979,1.864-2.526c1.131-0.586,2.349-1.031,3.587-1.25
	c2.404-0.462,4.772-0.156,6.87,0.449c2.117,0.603,4.028,1.494,5.911,2.332c0.939,0.415,1.875,0.823,2.84,1.124
	c0.954,0.286,1.979,0.503,2.971,0.167c-0.905,0.542-2.054,0.553-3.096,0.458c-1.058-0.103-2.093-0.32-3.109-0.537
	c-2.033-0.442-4.029-0.9-5.975-1.035c-1.94-0.146-4.36,0.286-5.159,0.511c-0.8,0.224-1.968,0.632-2.817,0.789
	C56.359,24.348,54.201,24.229,53.814,23.62z"/>
<path fill="#FFFFFF" d="M61.899,32.507c2.751-1.994,5.974-1.23,8.729,0.213c2.792,1.46,5.786,3.637,6.467,6.928
	c-0.46,0.348-0.751-0.5-1.016-0.802c-0.498-0.57-1.072-1.068-1.702-1.484c-1.341-0.889-2.872-1.514-4.416-1.938
	c-1.565-0.44-3.152-0.467-4.703-1.037C64.613,34.148,61.76,33.29,61.899,32.507C63.328,31.47,61.899,32.507,61.899,32.507z"/>
<path fill="#FFFFFF" d="M60.471,40.555c0.736,1.611,1.772,2.361,2.964,2.913c1.197,0.56,2.578,0.966,4.008,1.429
	c1.434,0.457,2.928,0.964,4.401,1.67c1.447,0.712,2.986,1.617,3.971,3.074c-1.698-0.22-3.186-0.309-4.744-0.517
	c-1.543-0.206-3.102-0.488-4.67-0.994c-1.555-0.513-3.171-1.223-4.539-2.513c-0.67-0.646-1.255-1.465-1.529-2.391
	C60.064,42.303,60.108,41.344,60.471,40.555z"/>
<path fill="#FFFFFF" d="M61.506,47.538c0.827,1.308,1.788,2.163,2.905,2.708c1.112,0.563,2.368,0.896,3.701,1.24
	c1.334,0.351,2.74,0.663,4.188,1.323c0.704,0.342,1.492,0.781,2.012,1.597c0.242,0.407,0.37,0.894,0.327,1.324
	c-0.045,0.434-0.203,0.807-0.424,1.123c-0.092-0.777-0.373-1.388-0.847-1.625c-0.45-0.268-1.054-0.403-1.698-0.52
	c-1.301-0.225-2.744-0.373-4.195-0.755c-1.443-0.377-2.975-0.965-4.226-2.082C61.987,50.775,61.267,49.055,61.506,47.538z"/>
<path fill="#FFFFFF" d="M59.696,54.321c0.981,0.233,1.75,0.501,2.547,0.873c0.886,0.393,1.534,0.676,2.198,1.195
	c0.663,0.519,1.262,1.074,1.859,1.613c0.597,0.545,1.894,1.348,1.911,1.605c0.02,0.256-1.369,0.313-2.645-0.125
	c-1.271-0.439-2.788-2.088-4.043-3.381C60.923,55.537,60.552,55.07,59.696,54.321z"/>
<path fill="#FFFFFF" d="M24.274,50.412c-2.088,1.321-3.529,2.994-4.289,5.373c-0.742,2.321-1.899,4.634-4.624,4.965
	c-0.536-0.431,1.709-4.379,2.07-4.928c0.781-1.183,1.458-2.464,2.49-3.453c1.167-1.121,2.682-1.838,4.254-2.193L24.274,50.412
	C23.279,51.041,24.274,50.412,24.274,50.412z"/>
<path fill="#FFFFFF" d="M24.338,46.843c-2.654,0.434-5.821,1.634-7.718,3.59c-0.884,0.918-1.567,1.889-2.357,2.879
	c-0.838,1.094-1.632,2.218-2.549,3.248c-0.902-0.027-0.137-3.258,0.059-3.82c0.525-1.507,1.502-2.616,2.741-3.597
	c2.579-2.039,5.653-3.027,8.949-2.596L24.338,46.843z"/>
<path fill="#FFFFFF" d="M60.035,25.234c1.183-1.161,4.1-0.725,5.573-0.381c1.47,0.345,4.419,1.744,6.275,2.92
	c1.861,1.182,3.419,2.706,5.006,4.108c0.799,0.697,1.576,1.412,2.379,2.062c0.406,0.317,0.818,0.645,1.265,0.815
	c0.221,0.079,0.452,0.1,0.593-0.098c0.147-0.188,0.188-0.471,0.218-0.732c0.018,0.265,0.043,0.545-0.085,0.817
	c-0.063,0.133-0.192,0.262-0.348,0.302c-0.151,0.043-0.305,0.045-0.444,0.023c-0.567-0.094-1.05-0.35-1.529-0.585
	c-0.95-0.494-1.849-1.04-2.758-1.558c-1.813-1.042-3.64-2.009-5.507-2.719c-1.863-0.71-4.42-1.654-6.169-1.775
	c-1.423-0.1-3.779-0.048-4.469-1.008C59.561,26.765,59.656,25.606,60.035,25.234z"/>
<path fill="#FFFFFF" d="M23.567,27.848c-1.538-0.97-2.936-1.532-4.357-1.782c-1.416-0.264-2.873-0.273-4.397-0.216l-4.763,0.268
	c-1.646,0.065-3.359,0.108-5.146-0.208c1.465-1.063,2.996-1.818,4.621-2.412c1.625-0.579,3.348-0.977,5.16-1.044
	c1.798-0.066,3.741,0.205,5.462,1.118C21.866,24.468,23.208,26.066,23.567,27.848z"/>
<path fill="#FFFFFF" d="M23.103,38.271c-1.849-0.666-4.77-0.818-6.415-0.729c-1.637,0.091-3.224,0.434-4.753,0.956
	c-1.53,0.529-2.999,1.234-4.391,2.15c-1.401,0.918-2.694,2.048-4.033,3.493c0.016-1.982,0.907-3.932,2.242-5.476
	c1.342-1.549,3.129-2.719,5.081-3.382c1.948-0.666,4.088-0.844,6.121-0.392C18.962,35.334,22.173,36.5,23.103,38.271z"/>
<path fill="#FFFFFF" d="M27.516,11.252c-0.792-0.739-1.743-1.249-2.777-1.517c-1.033-0.267-2.166-0.295-3.293,0.041
	c-0.56,0.175-1.12,0.44-1.606,0.844c-0.236,0.224-0.464,0.429-0.641,0.706c-0.081,0.122-0.166,0.262-0.232,0.396
	c0.199,0.002,0.39-0.01,0.597,0.001c0.416,0.022,0.847,0.067,1.285,0.132c0.21-0.02,0.421-0.032,0.633-0.036
	c0.882,0,1.764,0.152,2.623,0.384c0.863,0.208,1.708,0.502,2.519,0.881c0.799,0.388,1.58,0.83,2.28,1.384l0.169-0.188
	C28.968,12.981,28.289,12,27.516,11.252z"/>
<path fill="#FFFFFF" d="M60.511,35.499c0,0-0.015-0.198-0.04-0.531c-0.295-1.266-0.543-2.337-0.755-3.252l-7.002,1.122l-2.004,4.183
	l-3.596-4.24c-0.055,0.321-0.1,0.645-0.129,0.973c-0.073,0.566-0.058,1.167-0.043,1.775l0.021,1.817l0.029,3.632l-0.206,0.019
	c-0.218-1.193-0.409-2.389-0.604-3.585l-0.568-3.632c-0.073-0.635-0.084-1.279-0.069-1.941c0.037-0.655,0.049-1.359,0.313-2.019
	c0.505-1.295,1.872-2.46,3.312-2.325l0.093,0.183c-0.723,1.04-1.021,1.83-1.335,2.694l0.818-1.145l6.343-1.164l4.504,3.125
	c-0.585-2.535-0.85-3.708-0.969-4.264c-1.107-0.856-5.908-4.266-9.138-6.543l-7.466,1.362l-6.66-2.796l-10.135,7.658l-1.856,8.143
	l0.033,0.238c0.011,0.037,0.287,0.698,0.692,1.67l5.471,5.671l-4.124-2.446c1.183,2.825,2.438,5.822,2.438,5.822l0.409,4.49
	l0.472-0.814c0.733-1.271,1.458-2.544,2.162-3.832c-0.426,1.405-0.879,2.804-1.338,4.201l-0.692,2.092l-0.344,1.046l-0.011,0.029
	l0.061,0.652c0,0.145,1.679,2.702,2.652,4.264c1.938-0.271,3.864-0.372,5.786-0.423c1.064-0.961,2.169-1.871,3.296-2.747
	l0.755-4.037l-1.714-0.969c-0.635-0.175-1.987-0.642-2.389-0.751c-1.103-0.302-3.4-1.312-3.606-2.553
	c-0.021-0.137-0.029-0.255-0.021-0.354l2.065-5.111c0,0,0.118-0.31,0.07,0.025c-0.181,1.287-0.615,4.482-0.597,5.278
	c0.008,0.224,0.029,0.645,0.118,0.732c0.179,0.183,0.623,0,0.705-0.092c0.083-0.092,0.743-0.916,0.743-0.916
	c-0.321,0.032-0.958,0.188-0.965,0.078c-0.008-0.11,0.615-0.669,0.939-0.966c0.171-0.134,0.342-0.299,0.508-0.406
	c0.164-0.106,0.45-0.288,0.748-0.335c0.294-0.047,3.702,0.573,4.082,0.549c0.381-0.025,4.417-0.679,4.417-0.679l0.346,0.122
	c0.148,0.053,0.597,0.724,0.597,0.724c0.181,0.268,0.604,0.707,0.528,0.824c-0.079,0.116-0.491-0.106-0.73-0.168
	c0,0,0.586,1.148,0.774,1.137c0.157-0.012,0.659-0.628,0.816-1.027l-0.707-4.599l0.084-0.015l2.067,4.664
	c0.081,1.006-1.602,1.283-1.868,1.555c-0.258,0.957-1.55,1.134-2.541,1.708c-0.464,0.27-1.071,0.602-1.51,0.756l-1.5,0.911
	l0.807,3.8c1.507,0.994,2.979,2.045,4.395,3.182c0.395-0.044,0.784-0.092,1.183-0.125c0.552-0.044,1.105-0.114,1.661-0.14
	c0.848-0.056,1.697-0.092,2.551-0.102l1.504-4.547l0.041-0.308l-2.843-6.961l3.156,4.603l0.621-4.704l2.686-5.46l-4.763,2.29
	l6.387-5.595L60.511,35.499z M38.269,33.729c-0.134,1.302-0.374,2.442-0.586,3.665c-0.241,1.201-0.457,2.405-0.727,3.603
	l-0.207-0.019c-0.053-1.226-0.055-2.448-0.088-3.672l-0.015-1.832c0.004-0.617,0.019-1.215-0.018-1.784
	c-0.004-0.067-0.017-0.131-0.022-0.197l-2.991,3.527l-2.004-4.183l-7.521-1.206l5.142-3.57l6.347,1.164l0.09,0.127
	c-0.23-0.569-0.573-1.11-1.173-1.67l0.065-0.195c0.671-0.106,1.435,0.124,2.026,0.567c0.612,0.438,1.042,1.067,1.347,1.707
	C38.553,31.077,38.381,32.466,38.269,33.729z"/>
</svg>
