<?xml version="1.0" encoding="utf-8"?>
<!-- Generator: Adobe Illustrator 15.0.0, SVG Export Plug-In . SVG Version: 6.00 Build 0)  -->
<!DOCTYPE svg PUBLIC "-//W3C//DTD SVG 1.1//EN" "http://www.w3.org/Graphics/SVG/1.1/DTD/svg11.dtd">
<svg version="1.1" id="Warstwa_1" xmlns="http://www.w3.org/2000/svg" xmlns:xlink="http://www.w3.org/1999/xlink" x="0px" y="0px"
	 width="170px" height="170px" viewBox="0 0 170 170" enable-background="new 0 0 170 170" xml:space="preserve">
<g>
	<path fill="#FFFFFF" d="M165.984,76.89c0.679-0.589,1.298-1.452,1.72-2.709L170,70.226l-5.818-2.051
		c0.941,0.332,2.226,1.216,2.678,2.458l-3.506-0.105l-0.193-0.006l1.781-4.791c-0.957-0.356-2.842-1.481-4.533-2.578
		c-0.501-5.718-3.534-10.865-6.701-14.784c1.259-2.524,3.061-7.461-1.191-11.66c-1.146-1.134-2.438-3.198-3.688-5.193
		c-1.764-2.816-3.428-5.476-5.609-7.286c-3.203-2.656-5.939-3.717-7.938-4.492c-2.465-0.956-2.908-1.127-3.951-5.5l-0.65-2.741
		l-2.668-0.911c-2.357-0.806-5.029-1.182-8.408-1.182c-1.756,0-3.461,0.102-4.963,0.19c-0.926,0.055-1.81,0.108-2.564,0.128
		c-1.754-4.334-5.749-6.906-11.051-6.906c-2.494,0-5.285,0.573-7.891,1.587c-2.769-1.395-6.26-2.129-9.057-2.129
		c-1.578,0-2.986,0.223-4.219,0.666c-1.144-0.238-2.352-0.357-3.614-0.357c-6.082,0-12.43,2.708-16.625,6.871
		c-2.159-0.515-4.181-0.769-6.12-0.769c-9.491,0-14.374,6.287-16.966,10.934c-0.311-0.05-0.627-0.105-0.944-0.16
		c-1.349-0.234-2.746-0.475-4.146-0.475c-3.45,0-5.347,1.553-6.331,2.854c-2.179,2.883-1.435,6.564-0.978,8.277
		c-0.364,0.665-1.378,1.85-2.077,2.667c-0.627,0.732-1.283,1.499-1.908,2.316c-3.542-1.086-6.802-0.27-8.989,2.082
		C7.48,41.146,7.996,48.086,8.495,54.797c0.015,0.187,0.029,0.373,0.042,0.557c-3.561,3.382-6.035,7.24-7.531,11.727L0,70.105
		l2.269,2.235c1.196,1.178,2.805,3.078,4.359,4.915c0.667,0.789,1.27,1.498,1.82,2.133C5.61,83.849,2.674,90.256,3.143,93.463
		l0.359,2.463l2.161,1.234c1.008,0.58,4.535,2.936,7.886,5.293c-2.135,5.172-4.604,13.723,0.763,21.936
		c0.028,0.104,0.063,0.199,0.098,0.293l1.295,3.338h3.542c1.331,0,2.255-0.404,4.998-1.609c0.063-0.027,0.126-0.057,0.195-0.088
		c-0.763,5.074-0.938,10.395,1.492,15.252l2.062,4.123l5.55-2.088c2.201-0.814,4.1-1.539,5.734-2.213
		c2.937,13.209,11.753,16.605,19.231,16.938l0.823,0.037c1.67,0.936,4.331,2.809,5.734,4.043v5.313l6.697-2.191
		c4.482-1.463,6.741-4.576,7.911-7.627c4.655,2.936,11.233,5.883,18.879,5.883c2.654,0,5.287-0.369,7.823-1.096l6.931-1.99
		l-2.199-3.102l2.188-0.199c8.661-0.793,12.094-5.342,13.561-10.695c1.563,0.201,3.023,0.301,4.399,0.301
		c6.06,0,10.585-2.02,13.456-6.008l1.714-2.383l-1.192-2.682c-0.849-1.91-0.547-2.859,4.195-7.121
		c3.514-3.16,7.887-7.09,8.115-13.154c0.137-3.645-1.281-7.348-4.324-11.256c0.649-1.314,1.131-2.617,1.35-4.09
		c0.074,0.063,0.147,0.131,0.223,0.205l2.335,2.26l3.038-1.154c2.968-1.131,5.068-3.33,5.916-6.191
		c1.417-4.781-0.887-10.369-4.021-15.482C163.464,79.243,164.859,78.267,165.984,76.89z M147.35,89.891l-4.636,1.545l1.335,4.701
		c0.695,2.447,0.635,2.74-0.674,5c-0.617-0.158-1.236-0.313-1.855-0.463c-4.103-0.988-8.34-2.014-11.271-5.305l-4.362,3.883
		c4.145,4.656,9.754,6.012,14.26,7.102c0.467,0.111,0.92,0.223,1.362,0.334l1.815,1.896c3.563,3.729,4.037,5.789,4.004,6.688
		c-0.064,1.744-2.438,3.877-4.734,5.938c-3.445,3.1-8.871,7.979-7.838,15.059c-0.765,0.297-1.871,0.52-3.5,0.52
		c-2.006,0-4.496-0.344-7.4-1.021l-5.707-1.328l-0.543,5.832c-0.396,4.221-1.021,5.756-2.351,6.402
		c-2.821-3.352-7.052-5.473-11.935-5.863l-5.268-0.426l-0.248,5.279c-0.142,2.992-0.033,5.617,0.328,7.9
		c-7.886-0.18-15.179-5.336-18.286-8.404l-4.424-4.367l-3.43,5.186c-0.94,1.418-1.06,2.918-1.188,4.508
		c-0.105,1.311-0.237,2.307-0.428,3.064c-0.582-0.457-1.229-0.939-1.95-1.457c-6.074-4.342-8.306-4.342-9.258-4.342
		c-0.583,0-1.146,0.084-1.679,0.242c-4.381-0.592-8.52-3.336-8.961-14.896l-0.582-15.211l-8.453,12.104
		c-0.936,0.635-3.193,1.6-5.345,2.453c-0.021-2.75,0.592-5.928,1.225-9.217c0.237-1.221,0.471-2.441,0.679-3.656l0.898-5.256
		l-5.291-0.674c-0.271-0.035-0.562-0.055-0.878-0.055c-2.253,0-5.217,1.115-9.055,2.77c-1.21-3.971,0.395-8.16,2.227-12.17
		c0.252-0.555,0.476-1.045,0.656-1.473l1.558-3.703l-3.229-2.389c-2.499-1.846-6.066-4.334-8.8-6.158
		c1.206-2.777,3.333-6.69,4.405-7.68l4.415-4.046l-4.669-3.764c-0.639-0.516-2.579-2.805-3.861-4.321
		c-0.86-1.017-1.735-2.051-2.588-3.02c1.192-2.272,2.882-4.264,5.183-6.132l2.012-1.634l-0.13-2.589
		c-0.05-0.99-0.131-2.086-0.217-3.236c-0.161-2.174-0.459-6.172-0.219-8.555c0.271,0.156,0.584,0.35,0.938,0.589l5.991,4.024
		l1.809-6.986c0.232-0.898,1.553-2.441,2.615-3.682c2.101-2.455,4.882-5.703,4.602-9.799c1.888,0.321,4.145,0.574,6.021,0.264
		l2.627-0.437l1.103-2.311c4.063-0.123,9.047,1.008,12.092,4.873l4.589-3.615c-3.354-4.255-8.301-6.357-13.183-6.943
		c1.663-1.833,3.45-2.555,5.826-2.555c1.767,0,3.871,0.412,6.255,1.224l3.766,1.281l2.167-3.336
		c1.92-2.956,6.558-5.271,10.556-5.271c0.898,0,1.691,0.127,2.296,0.367l2.983,1.188l1.994-1.832
		c0.125-0.017,0.308-0.031,0.559-0.031c1.824,0,4.018,0.741,4.751,1.192l2.513,3.188l3.814-2.156
		c1.436-0.811,3.881-1.683,5.865-1.683c1.6,0,1.633,0.279,1.763,1.316l0.098,0.798l0.339,0.729c1.885,4.056,6.651,4.072,8.248,4.072
		c0.006,0,0.012,0,0.02,0c1.17,0,2.426-0.075,3.755-0.154c2.413-0.143,5.104-0.257,7.048-0.042c2.168,6.266,5.396,8.001,9.293,9.512
		c1.639,0.635,3.186,1.235,5.109,2.83c0.914,0.758,2.33,3.021,3.467,4.839c1.41,2.254,2.865,4.578,4.607,6.461
		c-0.17,0.354-0.398,0.771-0.563,1.067c-0.805,1.464-2.939,5.351,0.037,8.58c4.095,4.442,6.275,8.967,5.984,12.414l-0.246,2.918
		l2.393,1.688c0.352,0.248,1.238,0.867,2.38,1.61c-0.104,0.024-0.214,0.049-0.323,0.073c-1.609,0.361-4.305,0.963-5.262,3.925
		l-0.8,2.475l1.771,2.433c3.094,4.23,4.643,7.095,5.41,8.958C152.95,88.867,150.094,88.979,147.35,89.891z"/>
	<path fill="#FFFFFF" d="M126.032,69.802l-0.034-0.444l-0.104-0.435c-2.119-9.093-3.227-13.902-3.582-15.594l-0.444-2.099
		l-1.697-1.312c-2.878-2.225-16.495-11.841-18.038-12.93l-2.002-1.414l-2.413,0.44l-12.88,2.348l-11.4-4.788l-3.101-1.302
		l-2.683,2.027L47.857,49.256l-1.703,1.285l-0.472,2.079L42.06,68.525l-0.37,1.617l0.536,1.568c0.029,0.081,0.673,1.962,1.509,3.978
		l2.593,6.979l0.042,0.112l0.045,0.11c1.771,4.23,3.601,8.154,4.434,9.912l0.702,7.348l0.388,4.314l-0.004,0.012l0.098,1.365
		l0.094,1.031c0.033,1.65,0.422,2.258,3.919,7.74c0.821,1.283,1.663,2.602,2.308,3.643l1.353,2.186l2.526,0.477
		c0.656,0.125,1.43,0.281,2.192,0.439c0.386,1.42,0.855,3.186,1.328,5.066l0.836,3.324l3.309,0.893l12.895,3.479l1.509,0.408
		l1.513-0.402l13.815-3.67l3.433-0.91l0.77-3.469l1.218-5.482l1.737-0.318l3.404-0.627l1.084-3.289l3.106-9.426l0.165-0.5
		l0.071-0.521l0.083-0.6l0.012-0.076l0.008-0.078l0.598-5.305l1.072-7.389l4.832-9.841l3.17-6.451l1.137-2.307l0.691-1.414
		l-0.107-1.571C126.111,70.879,126.083,70.477,126.032,69.802z M98.128,124.809l-13.816,3.67L71.42,125
		c-0.765-3.045-1.509-5.754-1.942-7.291l6.086,0.234l0.77-0.459c2.031-1.213,4.005-2.512,5.95-3.846
		c0.627-0.145,1.246-0.248,1.825-0.273c0.422-0.021,0.944,0.045,1.515,0.156c2.661,1.65,9.024,5.086,9.024,5.086l5.025-0.766
		L98.128,124.809z M119.148,73.593l-3.174,6.455l-5.236,10.667l-1.215,8.393l-0.607,5.396l-0.083,0.6l-2.927,8.881
		c-1.672,0.02-3.331,0.092-4.988,0.197c-1.087,0.055-2.162,0.186-3.243,0.275c-0.772,0.066-1.54,0.154-2.308,0.242
		c-2.768-2.219-5.639-4.27-8.582-6.215l-1.574-7.418l2.928-1.779c0.857-0.301,2.041-0.951,2.95-1.475
		c1.938-1.125,4.458-1.471,4.958-3.338c0.523-0.527-1.523-4.109-1.883-4.633c0,0-0.873-1.309-1.158-1.412l-0.682-0.234
		c0,0-7.881,1.271-8.619,1.322c-0.745,0.049-7.399-1.166-7.978-1.072c-0.579,0.088-1.135,0.445-1.458,0.654
		c-0.319,0.207-2.826,2.682-2.826,2.682l-0.944,1.813c0,0,2.519,3.508,3.848,3.873c0.784,0.215,8.012,3.357,8.012,3.357
		l-1.475,7.883c-2.199,1.717-4.355,3.488-6.432,5.367c-3.756,0.102-7.521,0.297-11.306,0.828c-1.899-3.049-5.178-8.047-5.178-8.332
		l-0.118-1.27l0.022-0.063l-0.505-5.648l-0.801-8.377c0,0-2.453-5.064-4.76-10.581l-2.633-7.086c-0.793-1.9-1.417-3.725-1.417-3.725
		l3.623-15.905L71.176,38.96l13.003,5.46l14.586-2.66c6.301,4.447,15.67,11.107,17.832,12.779c0.233,1.096,0.758,3.427,1.934,8.495
		l-9.035-6.27l-12.379,2.272L95.52,61.27c0.606-1.689,1.191-3.233,2.602-5.261l-0.18-0.358c-2.813-0.266-5.479,2.009-6.467,4.542
		c-0.52,1.286-0.539,2.66-0.609,3.941c-0.026,1.293-0.006,2.551,0.137,3.789l1.014,6.47h1.61c0,0,0.291-5.254,0.399-5.879
		l6.918,5.744l3.92-6.101l13.885-4.183c0.411,1.771,0.893,3.837,1.461,6.275c0.048,0.649,0.077,1.037,0.077,1.037L119.148,73.593z"
		/>
	<path fill="#FFFFFF" d="M73.567,56.749c-1.152-0.865-2.641-1.314-3.947-1.109l-0.134,0.381c1.169,1.094,1.84,2.156,2.291,3.263
		l-0.18-0.247l-12.39-2.272l-10.042,6.971l14.689,4.422l3.913,6.101c0,0,5.878-6.634,5.884-6.505
		c0.071,1.109,0.063,6.641,0.063,6.641h2.105c0.385-2.167,0.796-4.235,1.038-6.563c0.22-2.468,0.559-5.183-0.656-7.747
		C75.604,58.835,74.766,57.605,73.567,56.749z"/>
</g>
</svg>
