<?xml version="1.0" encoding="utf-8"?>
<!-- Generator: Adobe Illustrator 15.0.0, SVG Export Plug-In . SVG Version: 6.00 Build 0)  -->
<!DOCTYPE svg PUBLIC "-//W3C//DTD SVG 1.1//EN" "http://www.w3.org/Graphics/SVG/1.1/DTD/svg11.dtd">
<svg version="1.1" id="Warstwa_1" xmlns="http://www.w3.org/2000/svg" xmlns:xlink="http://www.w3.org/1999/xlink" x="0px" y="0px"
	 width="118px" height="95px" viewBox="-14 -2.5 118 95" enable-background="new -14 -2.5 118 95" xml:space="preserve">
<path fill="#FFFFFF" d="M89.113,19.299L74.914,5.097c-0.566-0.567-1.334-0.885-2.137-0.885c-0.801,0-1.569,0.318-2.135,0.885
	L42.916,32.823l-5.994-5.759c-0.278-0.273-0.561-0.526-0.842-0.767c2.607-6.925,1.13-15.05-4.43-20.612
	c-4.061-4.059-9.679-6.106-15.41-5.612c-0.649,0.056-1.21,0.483-1.434,1.098c-0.219,0.613-0.069,1.296,0.392,1.76l9.438,9.438
	l-2.709,9.856l-9.562,2.412l-9.435-9.436c-0.458-0.46-1.148-0.617-1.761-0.393c-0.61,0.225-1.042,0.786-1.094,1.429
	c-0.498,5.738,1.555,11.357,5.613,15.417c5.568,5.569,13.695,7.035,20.618,4.424c0.239,0.285,0.492,0.572,0.752,0.841l5.731,6.034
	L14.621,61.119c-0.564,0.564-0.885,1.334-0.885,2.134c0,0.095,0.019,0.188,0.027,0.278L5.707,84.402
	c-0.378,0.979-0.151,2.089,0.576,2.844c0.517,0.531,1.219,0.818,1.936,0.818c0.296,0,0.595-0.049,0.885-0.149l21.472-7.478
	c0.129,0.016,0.256,0.035,0.385,0.035c0.773,0,1.546-0.293,2.134-0.883l17.688-17.688L70.098,82.24
	c0.019,0.017,0.027,0.029,0.047,0.046c3.705,3.707,8.785,4.653,12.494,0.946c3.705-3.707,3.1-9.127-0.607-12.834
	c-0.012-0.012-0.024-0.024-0.036-0.034L61.76,50.925L89.113,23.57C90.295,22.392,90.295,20.478,89.113,19.299z M73.988,74.29
	c1.365-1.363,3.578-1.363,4.941,0c1.361,1.362,1.361,3.577,0,4.94c-1.363,1.369-3.576,1.369-4.941,0
	C72.627,77.867,72.627,75.652,73.988,74.29z M12.821,80.92l4.828-12.504l8.028,8.025L12.821,80.92z M30.96,73.184l-9.93-9.931
	l51.748-51.747l9.929,9.929L30.96,73.184z"/>
</svg>
