<?xml version="1.0" encoding="utf-8"?>
<!-- Generator: Adobe Illustrator 15.0.0, SVG Export Plug-In  -->
<!DOCTYPE svg PUBLIC "-//W3C//DTD SVG 1.1//EN" "http://www.w3.org/Graphics/SVG/1.1/DTD/svg11.dtd" [
	<!ENTITY ns_flows "http://ns.adobe.com/Flows/1.0/">
]>
<svg version="1.1"
	 xmlns="http://www.w3.org/2000/svg" xmlns:xlink="http://www.w3.org/1999/xlink" xmlns:a="http://ns.adobe.com/AdobeSVGViewerExtensions/3.0/"
	 x="0px" y="0px" width="198px" height="198px" viewBox="-23.573 -18.29 198 198" enable-background="new -23.573 -18.29 198 198"
	 xml:space="preserve">
<defs>
</defs>
<polygon fill="#004B23" points="0,118.5 0,144.136 13.037,144.136 13.037,140.474 4.064,140.474 4.064,118.5 "/>
<polygon fill="#004B23" points="16.553,118.5 29.224,118.5 29.224,122.164 20.618,122.164 20.618,129.304 28.089,129.304 
	28.089,132.93 20.618,132.93 20.618,140.474 29.59,140.474 29.59,144.136 16.553,144.136 "/>
<g>
	<path fill="#004B23" d="M45.851,140.803c5.127,0,8.972-3.991,8.972-9.485c0-5.42-3.845-9.484-8.972-9.484
		c-5.164,0-8.972,4.064-8.972,9.484C36.879,136.812,40.687,140.803,45.851,140.803 M45.851,118.024
		c7.654,0,13.184,5.824,13.184,13.294c0,7.545-5.53,13.294-13.221,13.294c-7.654,0-13.184-5.713-13.184-13.294
		C32.63,123.811,38.197,118.024,45.851,118.024"/>
	<path fill="#004B23" d="M69.949,130.439c2.673,0,4.504-1.684,4.504-4.248c0-2.526-1.831-4.138-4.467-4.138h-2.93v8.386H69.949z
		 M62.991,118.5h7.434c4.834,0,8.203,3.077,8.203,7.69c0,4.541-3.516,7.802-8.167,7.802h-3.405v10.144h-4.065V118.5z"/>
	<path fill="#004B23" d="M94.01,140.803c5.127,0,8.972-3.991,8.972-9.485c0-5.42-3.845-9.484-8.972-9.484
		c-5.164,0-8.973,4.064-8.973,9.484C85.037,136.812,88.846,140.803,94.01,140.803 M94.01,118.024
		c7.654,0,13.184,5.824,13.184,13.294c0,7.545-5.529,13.294-13.221,13.294c-7.653,0-13.184-5.713-13.184-13.294
		C80.789,123.811,86.355,118.024,94.01,118.024"/>
</g>
<polygon fill="#004B23" points="111.148,118.5 115.214,118.5 115.214,140.474 124.186,140.474 124.186,144.136 111.148,144.136 "/>
<rect x="127.702" y="118.5" fill="#004B23" width="4.065" height="25.636"/>
<g>
	<path fill="#004B23" d="M138.944,137.214c0.696,1.831,2.198,3.626,5.019,3.626c2.307,0,3.844-1.281,3.844-3.442
		c0-5.421-11.535-4.212-11.535-12.452c0-3.992,2.966-6.922,7.691-6.922c4.869,0,6.957,3.443,7.58,5.238l-3.369,1.501
		c-0.586-1.245-1.758-3.003-4.285-3.003c-2.271,0-3.553,1.392-3.553,3.149c0,5.054,11.609,4.138,11.609,12.195
		c0,4.285-3.113,7.507-8.166,7.507c-5.238,0-7.508-3.515-8.277-5.786L138.944,137.214z"/>
	<path fill="#004B23" d="M22.814,153.45c1.133,0,1.837-0.526,1.837-1.797c0-1.023-0.537-1.7-1.908-1.7h-1.271v3.497H22.814z
		 M20.354,148.958h2.46c1.975,0,3.012,0.994,3.012,2.68c0,1.147-0.566,2.197-1.686,2.557l2.405,4.435h-1.244l-2.183-4.201h-1.646
		v4.201h-1.118V148.958z"/>
	<path fill="#004B23" d="M33.065,154.458c-0.07-1.493-1.108-2.253-2.294-2.253c-1.174,0-2.227,0.897-2.308,2.253H33.065z
		 M30.771,151.264c2.113,0,3.413,1.521,3.413,3.676c0,0.044,0,0.195-0.015,0.333h-5.762c0.014,1.6,1.093,2.567,2.583,2.567
		c1.219,0,1.894-0.634,2.241-1.117l0.716,0.524c-0.401,0.678-1.338,1.561-2.968,1.561c-2.182,0-3.69-1.531-3.69-3.743
		C27.29,152.772,28.864,151.264,30.771,151.264"/>
	<path fill="#004B23" d="M35.785,156.778c0.304,0.566,0.816,1.106,1.797,1.106c0.719,0,1.327-0.414,1.327-1.147
		c0-1.657-3.606-1.094-3.606-3.523c0-1.216,1.008-1.95,2.307-1.95c1.34,0,2.032,0.846,2.225,1.384l-0.801,0.455
		c-0.196-0.387-0.567-0.924-1.493-0.924c-0.663,0-1.189,0.371-1.189,0.994c0,1.615,3.621,1.007,3.621,3.508
		c0,1.271-1.05,2.127-2.446,2.127c-1.505,0-2.184-0.855-2.501-1.53L35.785,156.778z"/>
	<path fill="#004B23" d="M46.63,154.458c-0.067-1.493-1.104-2.253-2.294-2.253c-1.171,0-2.223,0.897-2.305,2.253H46.63z
		 M44.336,151.264c2.116,0,3.416,1.521,3.416,3.676c0,0.044,0,0.195-0.015,0.333h-5.761c0.014,1.6,1.09,2.567,2.582,2.567
		c1.216,0,1.894-0.634,2.238-1.117l0.719,0.524c-0.4,0.678-1.341,1.561-2.971,1.561c-2.182,0-3.688-1.531-3.688-3.743
		C40.856,152.772,42.431,151.264,44.336,151.264"/>
	<path fill="#004B23" d="M51.577,157.896c1.051,0,1.782-0.619,1.782-1.489c0-0.9-0.716-1.479-1.795-1.479
		c-1.092,0-1.796,0.635-1.796,1.479C49.768,157.232,50.472,157.896,51.577,157.896 M51.424,154.058c0.912,0,1.604,0.343,1.894,0.647
		v-0.886c0-1.007-0.675-1.589-1.741-1.589c-0.883,0-1.602,0.318-2.113,0.622l-0.442-0.801c0.483-0.303,1.435-0.788,2.65-0.788
		c1.963,0,2.739,1.093,2.739,2.627v4.739h-0.942l-0.122-0.608c-0.374,0.426-0.983,0.786-1.949,0.786
		c-1.575,0-2.735-0.993-2.735-2.39C48.663,155.05,49.809,154.058,51.424,154.058"/>
	<path fill="#004B23" d="M59.397,152.357c-1.645,0-2.127,1.301-2.127,2.831v3.441h-1.093v-7.184h1.079v1.201
		c0.247-0.72,1.048-1.383,2.141-1.383V152.357z"/>
	<path fill="#004B23" d="M65.959,153.187c-0.289-0.304-1.037-0.913-2.127-0.913c-1.508,0-2.571,1.201-2.571,2.762
		c0,1.55,1.119,2.779,2.598,2.779c1.132,0,1.853-0.663,2.141-0.953l0.333,0.928c-0.292,0.303-1.175,1.019-2.515,1.019
		c-2.142,0-3.691-1.642-3.691-3.772c0-2.127,1.59-3.771,3.676-3.771c1.314,0,2.156,0.622,2.53,0.982L65.959,153.187z"/>
	<path fill="#004B23" d="M73.447,154.139v4.49h-1.093v-4.53c0-1.149-0.731-1.84-1.698-1.84c-1.107,0-1.878,0.815-1.878,2.006v4.364
		h-1.093v-9.988h1.093v3.842c0.345-0.652,1.145-1.219,2.127-1.219C72.576,151.264,73.447,152.509,73.447,154.139"/>
	<path fill="#004B23" d="M81.445,153.354c1.008-0.512,1.838-1.219,1.838-2.116c0-0.885-0.648-1.534-1.646-1.534
		c-0.951,0-1.615,0.649-1.615,1.534C80.022,152.108,80.711,152.731,81.445,153.354 M83.779,156.97l-3.027-2.912
		c-0.703,0.303-1.322,0.926-1.322,1.837c0,1.216,1.035,1.92,2.265,1.92C82.563,157.815,83.34,157.429,83.779,156.97 M84.513,157.733
		c-0.622,0.62-1.604,1.075-2.818,1.075c-2.101,0-3.356-1.271-3.356-2.858c0-1.218,0.731-2.059,1.699-2.611
		c-0.541-0.553-1.053-1.189-1.053-2.142c0-1.245,0.928-2.419,2.639-2.419c1.687,0,2.697,0.996,2.697,2.434
		c0,1.2-0.844,2.017-2.171,2.762l2.294,2.212c0.385-0.704,0.456-1.245,0.456-2.169h1.052c0,1.12-0.125,2.002-0.72,2.942l1.008,1.009
		l-0.788,0.759L84.513,157.733z"/>
	<path fill="#004B23" d="M93.298,157.636c2.323,0,3.813-1.314,3.813-3.842c0-2.42-1.49-3.828-3.813-3.828h-1.091v7.67H93.298z
		 M91.089,148.958h1.989c3.302,0,5.182,1.81,5.182,4.836c0,3.205-1.949,4.835-5.182,4.835h-1.989V148.958z"/>
	<path fill="#004B23" d="M105.042,154.458c-0.069-1.493-1.106-2.253-2.294-2.253c-1.173,0-2.227,0.897-2.308,2.253H105.042z
		 M102.748,151.264c2.113,0,3.413,1.521,3.413,3.676c0,0.044,0,0.195-0.015,0.333h-5.762c0.015,1.6,1.094,2.567,2.582,2.567
		c1.217,0,1.895-0.634,2.239-1.117l0.718,0.524c-0.399,0.678-1.336,1.561-2.968,1.561c-2.185,0-3.69-1.531-3.69-3.743
		C99.266,152.772,100.84,151.264,102.748,151.264"/>
	<path fill="#004B23" d="M107.762,156.778c0.304,0.566,0.815,1.106,1.798,1.106c0.719,0,1.325-0.414,1.325-1.147
		c0-1.657-3.604-1.094-3.604-3.523c0-1.216,1.007-1.95,2.306-1.95c1.34,0,2.032,0.846,2.226,1.384l-0.8,0.455
		c-0.196-0.387-0.567-0.924-1.494-0.924c-0.662,0-1.188,0.371-1.188,0.994c0,1.615,3.618,1.007,3.618,3.508
		c0,1.271-1.049,2.127-2.444,2.127c-1.504,0-2.184-0.855-2.502-1.53L107.762,156.778z"/>
	<path fill="#004B23" d="M113.302,151.446h1.093v7.184h-1.093V151.446z M113.842,148.848c0.427,0,0.76,0.33,0.76,0.745
		c0,0.429-0.333,0.76-0.76,0.76c-0.415,0-0.745-0.331-0.745-0.76C113.097,149.178,113.427,148.848,113.842,148.848"/>
	<path fill="#004B23" d="M119.326,152.26c-1.394,0-2.432,1.146-2.432,2.79c0,1.672,1.079,2.765,2.461,2.765
		c1.479,0,2.43-1.216,2.43-2.765C121.785,153.309,120.692,152.26,119.326,152.26 M117.047,159.708
		c0.275,0.167,1.133,0.594,2.168,0.594c1.371,0,2.531-0.566,2.531-2.168v-0.637c-0.168,0.262-0.912,1.311-2.488,1.311
		c-2.059,0-3.467-1.56-3.467-3.757c0-2.208,1.424-3.787,3.452-3.787c1.494,0,2.31,0.956,2.542,1.342v-1.159h1.049v6.191
		c0,2.719-1.533,3.646-3.604,3.646c-0.937,0-1.949-0.333-2.567-0.719L117.047,159.708z"/>
	<path fill="#004B23" d="M130.407,154.139v4.49h-1.092v-4.53c0-1.149-0.72-1.84-1.701-1.84c-1.104,0-1.864,0.815-1.864,2.006v4.364
		h-1.09v-7.184h1.076v1.037c0.348-0.652,1.148-1.219,2.141-1.219C129.551,151.264,130.407,152.509,130.407,154.139"/>
	<path fill="#AD8122" d="M128.461,44.009c-0.248,0.295-0.916,0.058-1.18-0.08c-0.27-0.13-2.744-1.566-2.744-1.566
		c0.471-5.593-1.003-11.117-4.951-13.461c0.527-0.027,1.062-0.066,1.609-0.138c0.761-0.117,1.583-0.257,2.334-0.75
		c0.37-0.242,0.674-0.612,0.801-0.997c0.133-0.384,0.129-0.756,0.083-1.097c-0.288,0.657-2.323,0.402-2.922,0.31
		s-2.222-1.125-3.374-1.858c-2.307-1.483-4.765-3.443-7.686-4.689c-1.129-0.477-2.344-0.912-3.643-1.256
		c-0.025-0.031-0.044-0.06-0.068-0.091c0.795-0.109,1.6-0.202,2.44-0.258c1.327-0.078,2.658-0.134,4.409,0.08
		c-0.574-1.712-2.126-2.908-3.74-3.559c-1.644-0.652-3.461-0.815-5.203-0.509c-0.244,0.043-0.484,0.116-0.725,0.177
		c-0.622-0.909-1.174-1.614-1.816-2.063c-1.455-5.528-6.265-6.261-9.996-6.633c-0.244-0.024-0.365-0.51-0.826-0.525
		c-1.555-0.056-0.51-0.591,0.125-0.749c-0.266-2.147-2.502-3.32-3.895-3.734C86.1,0.15,83.223,0.198,81.738,1.04
		c-1.127-1.429-6.55-1.403-8.288,0.193c-4.578,0.04-9.025,1.33-12.91,4.659c-9.105-3.097-12.371,1.424-14.787,6.486
		c-1.171-0.029-2.277,0.031-3.248,0.13c-0.551,0.044-1.077,0.161-1.603,0.146c-0.567,0.036-1.173-0.103-1.963-0.646l-0.326,0.088
		c0.137,0.729,0.471,2.009,1.052,2.515c0.294,0.254,0.618,0.459,0.958,0.63c-3.017,1.752-5.575,4.547-6.64,8.655
		c0,0-3.192,0.402-4.511-0.771c-0.302,0.176-1.394,1.2-1.218,2.885c0.082,0.805,0.483,1.59,0.986,2.145
		c0.733,0.763,1.507,1.329,2.288,1.818c-0.976,0.132-2.022,0.333-3.348,0.626c0.459,1.971,1.758,3.327,3.081,4.289
		c0.872,0.616,1.768,1.06,2.647,1.399c0.081,0.281,0.149,0.556,0.241,0.845c-2.168-0.044-4.415,0.191-6.619,1.104
		c-1.214,0.523-2.454,1.319-3.275,2.523c-0.83,1.205-0.988,2.717-0.53,3.861c0.882-1.404,2.302-2.115,3.564-2.193
		c-2.288,2.919-3.406,5.048,2.357,8.655c-2.36,1.629-3.969,3.843-4.719,5.649c-0.015,0.036-0.03,0.072-0.045,0.109
		c-0.31,0.774-0.474,1.478-0.439,2.006c0.006,0.075,0.028,0.15,0.039,0.224c0.079,2.975,2.501,5.364,5.493,5.364
		c0.867,0,1.676-0.219,2.406-0.576c-1.079,2.567-5.613,9.964,1.457,15.603c0.073-2.281,3.384-4.59,5.283-5.667
		c-1.057,2.438-2.805,9.461-2.309,10.104c0.496,0.645,5.415-1.819,6.728-3.134c0.094,2.627-3.559,7.675-3.966,9.254
		c1.477,0.673,7.554-1.7,8.767-4.069c-0.93,4.541,1.493,13.133,10.39,13.526c-0.001-1.464-0.283-3.04-0.781-4.415
		c6.657,2.245,9.883,7.068,9.883,8.129c4.591-1.499,2.213-5.854,2.785-6.72c2.476,2.446,10.538,8.662,19.481,6.096
		c-1.488-2.099-2.938-6.646-2.775-8.059c3.822,0.308,7.262,2.478,8.115,4.35c4.621-0.424,9.127-2.212,8.531-8.688
		c1.246,0.563,2.619,0.895,4.086,0.885c1.252-0.027,2.611-0.344,3.713-1.135c1.103-0.785,1.785-2.054,1.652-3.224
		c-1.133,0.376-1.99,0.304-2.652,0.058c-0.663-0.241-1.2-0.566-1.754-0.927c-0.646-0.416-1.281-0.886-1.909-1.369
		c0.266-0.162,0.532-0.326,0.794-0.496c0.193,0.083,0.375,0.178,0.574,0.251c1.783,0.671,3.926,0.853,5.729,0.226
		c1.807-0.611,3.145-1.829,3.903-3.301c-1.377,0.017-2.562-0.08-3.534-0.368c0.155-0.483,0.238-1.007,0.236-1.541
		c-0.033-1.261-0.465-2.393-1.016-3.368c0.16-0.571,0.36-1.111,0.576-1.639c1.018-0.01,2.734,0.518,3.622,1.116
		c0.919,0.589,1.838,1.188,2.438,2.839c1.32-1.099,1.996-3.104,1.679-5.096c-0.294-1.999-1.319-3.701-2.388-5.062
		c-0.353-0.437-0.717-0.838-1.088-1.225c1.42-2.498,2.316-3.5,1.324-6.998c2.053-0.686,5.02-1.424,5.418,1.431
		c1.139-0.433,5.258-6.052-1.908-13.213c-0.027-0.028-0.051-0.056-0.076-0.085c0.162-0.5,0.31-0.683,0.44-1.188
		C126.174,47.008,128.662,45.782,128.461,44.009"/>
	<path fill="#FFFFFF" d="M49.711,53.776c-1.813,0.877-3.632,1.434-5.371,2.023c-1.741,0.573-3.413,1.143-4.947,1.847
		c-1.536,0.705-2.926,1.538-4.145,2.667c-1.237,1.12-2.264,2.57-3.305,4.292c-0.349-1.978,0.089-4.127,1.231-5.953
		c1.135-1.832,2.922-3.227,4.813-4.077c1.902-0.865,3.908-1.266,5.872-1.38C45.833,53.098,47.771,53.262,49.711,53.776"/>
	<path fill="#FFFFFF" d="M56.301,78.897c-1.268,2.091-2.359,4.668-1.924,7.169c0.217,1.257,0.249,2.377,0.016,3.641
		c-0.182,1.092-0.259,2.612-1.506,1.496c-4.028-3.612-0.539-10.164,3.169-12.538L56.301,78.897
		C55.689,79.908,56.301,78.897,56.301,78.897"/>
	<path fill="#FFFFFF" d="M60.048,3.645c5.937-2.045,11.128,6.431,10.424,11.447c-0.41,0.128-1.36-2.573-1.714-3.096
		c-0.865-1.277-1.975-2.418-3.221-3.328c-2.141-1.563-4.695-2.854-7.292-3.43L60.048,3.645C60.825,3.377,60.048,3.645,60.048,3.645"
		/>
	<path fill="#FFFFFF" d="M79.513,17.545c-1.341-4.146-1.364-9.909,2.363-12.865c2.603-2.065,8.518-3.449,10.2,0.571
		c-0.228,0.814-3.67,0.961-4.582,1.262c-1.144,0.375-2.26,0.882-3.248,1.574c-2.939,2.062-3.82,6.075-4.229,9.413L79.513,17.545
		C78.938,15.771,79.513,17.545,79.513,17.545"/>
	<path fill="#FFFFFF" d="M75.282,20.436c-2.112-4.02-2.965-8.755-1.794-13.185c0.978-3.7,5.573-6.579,9.002-3.82
		c0.137,0.614-2.262,1.806-2.793,2.322c-1.037,1.007-1.908,2.193-2.619,3.451c-1.841,3.265-1.681,7.502-1.363,11.107L75.282,20.436
		C74.427,18.807,75.282,20.436,75.282,20.436"/>
	<path fill="#FFFFFF" d="M86.479,15.174c-0.198-3.516,1.759-6.621,4.356-8.806c2.397-2.017,6.427-3.496,9-0.795
		c-0.023,0.646-2.645,1.297-3.271,1.566c-1.326,0.566-2.752,0.9-4.059,1.497c-2.721,1.241-4.813,3.759-5.692,6.588L86.479,15.174
		C86.393,13.637,86.479,15.174,86.479,15.174"/>
	<path fill="#FFFFFF" d="M93.219,15.972c-0.438-3.86,1.807-7.162,4.588-9.563c2.436-2.106,6.553-3.041,8.838-0.083
		c-0.026,0.819-1.938,1.424-2.594,1.789c-1.334,0.739-2.584,1.127-4.031,1.566c-2.938,0.891-5.303,3.558-6.357,6.358L93.219,15.972
		C93.042,14.419,93.219,15.972,93.219,15.972"/>
	<path fill="#FFFFFF" d="M97.68,17.462c1.299-3.76,5.089-6.065,8.842-6.747c3.067-0.557,6.676,0.329,7.43,3.842
		c-0.301,0.683-2.034-0.116-2.635-0.229c-1.236-0.234-2.494-0.32-3.748-0.243c-3.385,0.207-7.028,1.244-9.517,3.631L97.68,17.462
		C98.189,15.988,97.68,17.462,97.68,17.462"/>
	<path fill="#FFFFFF" d="M91.621,28.143c-0.516-0.807,1.068-2.623,2.471-3.348c1.499-0.776,3.112-1.366,4.751-1.656
		c3.19-0.612,6.325-0.206,9.104,0.595c2.804,0.8,5.339,1.98,7.832,3.089c1.246,0.551,2.484,1.092,3.761,1.49
		c1.265,0.379,2.623,0.667,3.94,0.221c-1.201,0.719-2.722,0.733-4.103,0.607c-1.403-0.137-2.772-0.424-4.122-0.713
		c-2.691-0.585-5.34-1.192-7.917-1.371c-2.569-0.194-5.774,0.38-6.833,0.677s-2.609,0.837-3.734,1.046
		C94.995,29.108,92.136,28.95,91.621,28.143"/>
	<path fill="#FFFFFF" d="M102.334,39.918c3.645-2.642,7.914-1.63,11.566,0.282c3.697,1.935,7.666,4.818,8.57,9.18
		c-0.609,0.461-0.998-0.662-1.348-1.063c-0.66-0.754-1.422-1.414-2.257-1.967c-1.772-1.177-3.804-2.004-5.849-2.568
		c-2.076-0.584-4.18-0.618-6.23-1.373C105.933,42.093,102.146,40.957,102.334,39.918C104.229,38.544,102.334,39.918,102.334,39.918"
		/>
	<path fill="#FFFFFF" d="M100.441,50.582c0.975,2.135,2.349,3.127,3.926,3.859c1.59,0.742,3.419,1.279,5.313,1.892
		c1.898,0.608,3.878,1.279,5.829,2.212c1.917,0.946,3.957,2.146,5.262,4.074c-2.248-0.29-4.223-0.406-6.285-0.683
		c-2.043-0.273-4.11-0.646-6.188-1.318c-2.058-0.678-4.202-1.62-6.013-3.328c-0.887-0.855-1.663-1.941-2.023-3.169
		C99.902,52.899,99.964,51.626,100.441,50.582"/>
	<path fill="#FFFFFF" d="M101.813,59.834c1.099,1.731,2.371,2.866,3.852,3.588c1.471,0.745,3.137,1.187,4.901,1.645
		c1.767,0.465,3.635,0.877,5.552,1.75c0.934,0.457,1.977,1.035,2.665,2.117c0.321,0.541,0.493,1.184,0.431,1.756
		c-0.059,0.575-0.265,1.07-0.558,1.488c-0.122-1.032-0.494-1.84-1.123-2.153c-0.597-0.356-1.397-0.534-2.251-0.688
		c-1.721-0.297-3.635-0.495-5.559-1c-1.914-0.502-3.944-1.28-5.6-2.761C102.451,64.125,101.496,61.847,101.813,59.834"/>
	<path fill="#FFFFFF" d="M99.417,68.82c1.295,0.313,2.317,0.666,3.37,1.158c1.175,0.521,2.038,0.895,2.914,1.585
		c0.878,0.688,1.672,1.422,2.463,2.136c0.792,0.724,2.512,1.786,2.536,2.128c0.024,0.34-1.815,0.415-3.504-0.166
		c-1.687-0.582-3.694-2.765-5.362-4.479C101.041,70.432,100.549,69.815,99.417,68.82"/>
	<path fill="#FFFFFF" d="M52.479,63.641c-2.767,1.753-4.673,3.97-5.682,7.122c-0.982,3.073-2.515,6.139-6.127,6.578
		c-0.71-0.571,2.264-5.804,2.744-6.529c1.032-1.567,1.932-3.266,3.299-4.576c1.547-1.485,3.553-2.436,5.634-2.905L52.479,63.641
		C51.162,64.476,52.479,63.641,52.479,63.641"/>
	<path fill="#FFFFFF" d="M52.566,58.915c-3.517,0.573-7.713,2.164-10.225,4.757c-1.173,1.214-2.078,2.505-3.125,3.813
		c-1.11,1.449-2.161,2.94-3.378,4.304c-1.196-0.038-0.18-4.314,0.08-5.062c0.697-1.996,1.99-3.466,3.629-4.764
		c3.419-2.704,7.493-4.011,11.861-3.442L52.566,58.915z"/>
	<path fill="#FFFFFF" d="M99.865,30.282c1.566-1.538,5.433-0.961,7.382-0.505c1.948,0.458,5.86,2.312,8.317,3.869
		c2.467,1.566,4.527,3.586,6.635,5.444c1.058,0.924,2.084,1.869,3.152,2.731c0.534,0.419,1.082,0.854,1.672,1.079
		c0.291,0.104,0.603,0.132,0.787-0.13c0.193-0.249,0.248-0.624,0.287-0.97c0.024,0.35,0.059,0.722-0.115,1.082
		c-0.082,0.177-0.254,0.348-0.459,0.399c-0.197,0.059-0.404,0.061-0.59,0.031c-0.752-0.126-1.387-0.464-2.022-0.776
		c-1.259-0.653-2.45-1.378-3.657-2.063c-2.398-1.381-4.818-2.663-7.293-3.604c-2.471-0.94-5.859-2.19-8.175-2.353
		c-1.884-0.131-5.009-0.063-5.923-1.335C99.232,32.31,99.363,30.775,99.865,30.282"/>
	<path fill="#FFFFFF" d="M51.544,33.745c-2.038-1.285-3.89-2.029-5.775-2.361c-1.875-0.35-3.804-0.36-5.827-0.287l-6.308,0.355
		c-2.183,0.086-4.452,0.144-6.821-0.275c1.942-1.407,3.97-2.409,6.124-3.196c2.152-0.767,4.433-1.293,6.836-1.383
		c2.382-0.088,4.956,0.271,7.236,1.481C49.288,29.267,51.068,31.383,51.544,33.745"/>
	<path fill="#FFFFFF" d="M50.93,47.557c-2.451-0.883-6.321-1.085-8.5-0.966c-2.169,0.12-4.273,0.575-6.3,1.266
		c-2.026,0.701-3.972,1.635-5.816,2.85c-1.857,1.217-3.57,2.715-5.344,4.628c0.021-2.626,1.201-5.21,2.97-7.257
		c1.78-2.052,4.146-3.603,6.732-4.48c2.583-0.882,5.419-1.118,8.11-0.52C45.442,43.665,49.696,45.21,50.93,47.557"/>
	<path fill="#FFFFFF" d="M56.777,11.755c-1.049-0.98-2.311-1.654-3.682-2.012c-1.368-0.354-2.87-0.39-4.363,0.056
		c-0.741,0.231-1.483,0.583-2.126,1.119c-0.312,0.295-0.616,0.566-0.851,0.935c-0.105,0.161-0.217,0.346-0.308,0.524
		c0.266,0.004,0.518-0.013,0.793,0.003c0.549,0.028,1.12,0.089,1.701,0.174c0.28-0.027,0.56-0.043,0.841-0.047
		c1.169,0,2.339,0.201,3.473,0.508c1.146,0.276,2.267,0.666,3.339,1.168c1.061,0.514,2.096,1.099,3.021,1.834l0.225-0.25
		C58.701,14.046,57.799,12.747,56.777,11.755"/>
	<path fill="#FFFFFF" d="M100.496,43.883c0,0-0.021-0.264-0.055-0.704c-1.631-7-2.229-9.625-2.447-10.658
		c-1.467-1.134-7.827-5.651-12.107-8.669l-9.894,1.805l-8.823-3.704L53.739,32.098l-2.457,10.791l0.041,0.314
		c0.017,0.049,0.381,0.925,0.919,2.214l7.249,7.512l-5.464-3.239c1.566,3.743,3.231,7.715,3.231,7.715l0.543,5.95l0.626-1.079
		c0.968-1.685,1.931-3.37,2.862-5.079c-0.563,1.861-1.163,3.717-1.769,5.567l-0.918,2.772l-0.457,1.383l-0.015,0.042l0.079,0.861
		c0,0.199,2.363,3.795,3.631,5.838c1.532,0.289,3.922,0.813,3.922,0.813s0.773,2.661,1.572,5.854l8.749,2.359l9.374-2.49
		l1.395-6.279l3.762-0.695l2.111-6.394l0.055-0.407l-3.767-9.224l4.179,6.099l0.825-6.23l3.558-7.238l-6.309,3.036l8.46-7.415
		L100.496,43.883z"/>
	<path fill="#AD8122" d="M70.579,36.283c-0.404-0.849-0.973-1.683-1.785-2.263c-0.782-0.588-1.795-0.893-2.682-0.752l-0.089,0.259
		c0.795,0.742,1.25,1.46,1.555,2.214l-0.121-0.169l-8.406-1.541l-6.815,4.729l9.966,1.597l2.655,5.543l3.963-4.676
		c0.007,0.088,0.024,0.173,0.03,0.263c0.048,0.752,0.027,1.545,0.023,2.362l0.02,2.428c0.044,1.62,0.046,3.239,0.118,4.864
		l0.271,0.025c0.36-1.588,0.644-3.182,0.965-4.773c0.282-1.62,0.598-3.131,0.776-4.855C71.173,39.865,71.403,38.023,70.579,36.283"
		/>
	<path fill="#AD8122" d="M93.313,34.03l-8.405,1.541l-1.085,1.519c0.414-1.146,0.811-2.193,1.766-3.57l-0.121-0.243
		c-1.908-0.179-3.72,1.364-4.387,3.081c-0.352,0.873-0.368,1.806-0.414,2.674c-0.021,0.877-0.004,1.73,0.091,2.572l0.755,4.813
		c0.258,1.586,0.508,3.17,0.799,4.75l0.271-0.023l-0.037-4.814l-0.026-2.405c-0.022-0.807-0.039-1.602,0.055-2.353
		c0.041-0.435,0.098-0.865,0.17-1.289l4.765,5.618l2.656-5.541l9.965-1.598L93.313,34.03z"/>
	<path fill="#AD8122" d="M87.354,72.986c-0.741,0.036-1.471,0.127-2.205,0.188c-0.524,0.044-1.045,0.104-1.565,0.165
		c-1.875-1.507-3.825-2.899-5.821-4.218l-1.069-5.033l1.985-1.207c0.584-0.206,1.387-0.646,2.002-1.001
		c1.314-0.763,3.027-0.996,3.367-2.266c0.352-0.358,2.583-0.728,2.475-2.059l-2.738-6.18l-0.111,0.018l0.938,6.092
		c-0.209,0.531-0.875,1.35-1.086,1.364c-0.245,0.016-1.025-1.507-1.025-1.507c0.318,0.08,0.867,0.376,0.969,0.222
		c0.104-0.155-0.457-0.738-0.697-1.092c0,0-0.594-0.889-0.789-0.959l-0.461-0.161c0,0-5.348,0.864-5.852,0.898
		c-0.504,0.032-5.018-0.789-5.41-0.728c-0.392,0.063-0.772,0.304-0.989,0.445c-0.218,0.141-0.447,0.362-0.672,0.539
		c-0.43,0.395-1.257,1.133-1.246,1.279c0.011,0.146,0.855-0.062,1.278-0.104c0,0-0.874,1.09-0.983,1.214
		c-0.109,0.123-0.698,0.363-0.934,0.12c-0.116-0.117-0.148-0.673-0.155-0.968c-0.026-1.054,0.551-5.29,0.79-6.995
		c0.063-0.444-0.093-0.033-0.093-0.033l-2.74,6.771c-0.008,0.135,0,0.291,0.031,0.472c0.272,1.644,3.316,2.98,4.776,3.379
		c0.534,0.146,2.326,0.765,3.167,0.998l2.27,1.281l-1,5.35c-1.493,1.163-2.955,2.367-4.366,3.642
		c-2.778,0.074-5.56,0.212-8.362,0.65c1.053,0.321,4.009,1.778,4.009,1.778l5.11,0.194l0.518-0.311
		c1.381-0.823,2.72-1.704,4.041-2.61c0.425-0.095,0.843-0.168,1.236-0.185c0.288-0.013,0.642,0.031,1.029,0.109
		c1.808,1.117,6.123,3.448,6.123,3.448l4.573-0.696c0,0,2.777-1.82,4.14-2.452C90.307,72.809,88.828,72.891,87.354,72.986"/>
</g>
</svg>
