<?xml version="1.0" encoding="utf-8"?>
<!-- Generator: Adobe Illustrator 15.0.0, SVG Export Plug-In  -->
<!DOCTYPE svg PUBLIC "-//W3C//DTD SVG 1.1//EN" "http://www.w3.org/Graphics/SVG/1.1/DTD/svg11.dtd" [
	<!ENTITY ns_flows "http://ns.adobe.com/Flows/1.0/">
]>
<svg version="1.1"
	 xmlns="http://www.w3.org/2000/svg" xmlns:xlink="http://www.w3.org/1999/xlink" xmlns:a="http://ns.adobe.com/AdobeSVGViewerExtensions/3.0/"
	 x="0px" y="0px" width="1126px" height="1077px" viewBox="-7.881 -0.041 1126 1077"
	 enable-background="new -7.881 -0.041 1126 1077" xml:space="preserve">
<defs>
</defs>
<path fill="#85E1A0" d="M435.949,478.157l40.059-47.095c0.057,0.796,0.183,1.717,0.224,2.527c0.628,7.596,0.46,15.638,0.446,23.876
	l0.153,24.497c0.335,16.357,0.35,32.685,1.159,49.078l2.597,0.314c3.813-16.085,6.521-32.121,9.761-48.24
	c2.96-16.357,6.157-31.59,8.07-48.988c1.381-16.901,3.671-35.471-4.748-53.001c-3.867-8.594-9.815-16.95-17.857-22.835
	c-7.832-5.948-18.206-8.936-27.102-7.61l-0.948,2.639c8.182,7.519,12.719,14.744,15.847,22.333l-1.467-1.676l-84.598-15.609
	l-68.987,47.772L409.31,422.3L435.949,478.157z"/>
<path fill="#85E1A0" d="M1090.464,444.417c-11.098-0.873-26.583-6.793-37.067-11.4c-1.439-50.258-40.241-109.57-53.756-129.048
	l19.825-61.162l-16.42-3.295c-0.767-0.105-58.056-11.805-90.811-22.661c6.703-7.351,17.997-17.125,27.366-20.93l18.458-7.595
	l-12.607-15.624c-17.761-22.34-58.197-33.566-85.157-38.879c7.931-11.338,17.256-25.355,22.046-36.33l6.634-14.877l-15.416-5.34
	c-22.717-7.721-55.891-11.463-88.241-15.108c-23.164-2.499-57.637-6.331-67.69-11.204c-5.71-23.813-28.441-38.572-48.896-44.617
	c-6.8-2.074-16.169-3.191-25.998-3.191c-6.563,0-20.986,0.566-34.11,5.041C596.113,1.202,579.287,0,568.69,0
	c-8.028,0-34.041,1.007-51.214,12.525c-49.036,1.445-91.972,16.643-128.314,45.168c-18.472-5.578-35.382-8.391-50.726-8.391
	c-56.701,0-85.437,37.65-105.151,76.8c-3.616,0.231-7.805,0.356-12.244,0.356c-22.969,0-46.985-4.07-47.166-4.104l-21.377-3.729
	l4.078,21.195c1.48,8.629,4.524,19.499,9.997,27.653c-25.244,19.149-43.534,44.407-53.434,74.35
	c-13.014,0.063-21.754-2.395-24.183-4.607l-8.224-7.282l-9.202,5.417c-9.061,5.194-22.199,21.551-19.659,43.591
	c0.826,10.541,5.739,21.118,13.279,29.719c-0.866,0.132-1.745,0.398-2.387,0.537l-14.842,3.274l3.378,14.696
	c4.44,19.296,16.182,36.343,34.822,50.516c-11.644,1.955-22.241,5.138-32.727,9.445c-17.383,7.519-30.619,17.865-39.403,30.794
	c-9.648,13.893-18.513,44.652-11.435,62.796l6.451,12.58l13.545-4.391c0,0,0.46-0.146,1.842-0.146
	c11.826,0,34.543,10.136,51.772,19.77c-49.176,34.119-65.513,79.062-62.859,98.218l1.061,7.281l6.367,3.533
	c2.276,1.395,6.255,3.182,11.016,5.445c15.945,7.455,43.801,20.561,59.382,38.355c-0.363,0.293-0.475,0.621-0.586,0.844
	c-15.122,32.365-50.306,107.789,23.024,166.404l23.471,18.584l0.962-29.699c0.336-13.625,19.995-43.031,38.049-53.113
	c-2.095,20.805-16.882,48.256-26.432,66.281c-11.044,20.859-15.93,30.465-8.363,40.24c1.759,2.471,6.563,6.813,14.87,6.813
	c8.657,0,23.582-5.586,37.964-12.943c-4.245,8.475-8.824,16.965-12.552,23.848c-8.461,15.121-13.433,23.973-15.079,31.234
	l-3.142,12.078l11.254,5.25c14.702,6.631,35.785-4.734,69.644-24.994c3.812-2.191,7.736-4.873,11.741-7.148
	c8.729,82.49,48.144,125.844,117.594,128.705l15.525,0.783l-0.015-15.539c0-6.369-0.349-12.861-1.283-19.354
	c40.169,20.678,60.861,49.859,63.29,57.762v19.617l19.591-6.436c31.163-10.068,38.662-31.486,39.36-49.176
	c27.059,19.854,72.408,45.824,125.829,49.119c2.289,0.295,9.716,0.754,11.016,0.754c16.322,0,32.532-2.234,48.002-6.939
	l20.371-5.725l-12.398-17.256c-8.852-12.428-14.493-35.131-16.337-54.818c24.63,6.535,39.85,21.865,44.499,32.422l4.386,9.41
	l10.651-0.713c57.331-5.291,71.544-39.08,73.917-75.912c16.561,3.072,31.905,4.496,45.853,4.496
	c47.208,0,69.995-17.746,80.801-32.77l5.097-6.844l-3.392-8.027c-1.608-2.959-4.204-8.281-7.29-14.213
	c-2.29-4.428-4.719-9.09-6.785-12.344c20.245-4.203,56.743-12.008,62.37-41.732l2.819-14.145l-14.059-3.225
	c-15.946-3.799-25.762-7.037-31.627-9.398c0.281-13.459-3.085-24.377-7.078-32.854c6.451,1.551,13.53,4.398,17.426,7.01
	c9.83,6.381,39.304,20.344,42.612,21.795l18.053,8.477l3.211-19.533c0.142-1.076,4.231-26.111,0.505-48.102
	c-2.556-18.291-10.557-35.98-24.296-54.342c-2.037-3.211-4.369-6.08-6.884-8.963c10.013-17.385,17.314-31.584,12.498-58.203
	c4.328-1.041,8.711-1.725,12.663-1.725c7.4,0,8.74,1.809,9.648,7.805l2.472,18.543l17.494-6.605
	c10.75-4.006,24.909-21.264,30.104-45.146c4.732-22.543,2.582-56.553-28.791-95.397c-1.271-1.927-2.472-3.708-3.896-5.538
	c22.913-4.264,43.117-19.106,52.414-33.25l13.321-20.916L1090.464,444.417z M115.875,789.407
	c-30.004-36.848-15.358-78.092,1.788-114.422c1.409-3.252,2.889-6.143,3.978-8.559c6.954-13.084,16.741-25.049,28.917-35.514
	c49.693-42.502,133.606-54.146,173.135-44.156l6.086,14.193c-65.511,0.271-156.881,28.518-194.775,98.602l26.249,14.166
	c32.756-60.717,116.698-83.035,171.291-82.791l2.08,22.334c-52.596,8.076-111.196,32.33-145.166,77.848
	C159.857,728.684,129.698,760.965,115.875,789.407z M643.934,350.743c-19.073-1.773-37.419,13.858-44.093,31.088
	c-3.742,8.915-3.854,18.29-4.231,27.045c-0.14,8.824-0.041,17.46,0.964,25.984l7.623,48.568c2.472,15.938,4.929,32.009,7.945,47.926
	l2.863-0.314l-0.545-48.555l-0.211-24.196c-0.152-8.147-0.292-16.218,0.697-23.792c0.322-4.398,0.741-8.733,1.564-13.027
	l48.031,56.687l26.92-55.856l93.554-15.051c2.842,12.237,6.184,26.61,10.116,43.513c0.238,4.419,0.644,7.093,0.644,7.093
	l-7.959,15.784l-9.229,8.217l-57.833,50.698l4.72,4.852l40.868-19.589l-35.926,73.031l-8.418,62.914l-31.877-46.676l-3.002,2.877
	l30.661,75.318l-0.419,4.084L697.2,750.103c-11.499,0.107-22.867,0.644-34.097,1.409c-7.512,0.281-14.925,1.229-22.381,1.969
	c-5.083,0.336-10.375,1.047-15.68,1.523c-19.087-15.213-38.746-29.043-58.782-42.502l-10.793-50.775l19.924-12.188
	c6.046-2.055,14.033-6.486,20.329-10.146c13.223-7.656,30.537-9.98,33.93-22.84c3.477-3.541,26.081-7.297,24.992-20.77
	l-27.534-62.301l-1.116,0.146l9.271,61.49c-2.108,5.383-8.811,13.621-10.932,13.719c-2.402,0.258-10.207-15.197-10.207-15.197
	c3.225,0.865,8.727,3.789,9.772,2.219c1.063-1.453-4.55-7.373-7.189-11.002c0,0-5.864-8.9-7.89-9.689l-4.551-1.488
	c0,0-54.104,8.707-58.991,8.965c-5.18,0.391-50.781-7.883-54.844-7.273c-3.785,0.592-7.737,2.98-9.94,4.445
	c-2.194,1.467-4.469,3.701-6.718,5.445c-4.342,3.938-12.789,11.443-12.705,12.957c0.362,1.383,8.67-0.6,12.942-1.068
	c0,0-8.781,10.982-9.885,12.197c-1.117,1.34-6.939,3.707-9.271,1.186c-1.397-1.15-1.648-6.729-1.705-9.646
	c-0.193-10.709,5.53-53.525,7.89-70.65c0.754-4.448-0.712-0.384-0.712-0.384l-27.799,68.409c-0.056,1.291,0,2.883,0.224,4.656
	c2.862,16.664,33.537,30.186,48.407,34.158c5.39,1.5,23.317,7.693,31.861,10.131l22.899,12.838l-10.011,54.104
	c-15.122,11.785-30.006,23.904-44.205,36.541c-25.574,0.782-51.404,1.961-77.354,5.77c-5.761-9.212-13.577-21.302-20.201-32.104
	c-1.634-2.248-2.96-4.439-4.217-6.563c-0.083-0.154-0.181-0.293-0.531-0.475c-1.257-2.053-2.471-4.076-3.587-5.99
	c-0.1-0.166-0.196-0.334-0.322-0.543c-1.075-1.816-2.122-3.373-3.029-4.93c-2.15-3.477-3.463-5.877-3.463-6.43l-0.865-8.67
	l0.111-0.428l3.323-10.107l1.228-3.883l8.699-26.207l0.699-1.738c4.621-14.457,9.13-28.832,13.864-43.352l-2.067-1.934
	c-7.539,13.408-15.121,26.918-22.814,40.379l-6.353,10.891l-0.279-4.162l-1.661-16.391l-2.668-30.955l-0.864-8.518
	c0,0-16.671-40.129-32.617-77.861l36.317,21.523l4.132-4L308.6,473.27c-5.446-13.02-9.468-25.522-9.468-25.522l24.603-108.908
	l135.7-102.393l89.094,37.426l99.677-18.158c43.285,30.473,107.483,75.97,122.13,87.412c1.573,7.425,5.153,23.063,13.045,57.074
	l-60.183-41.834l-84.862,15.61l-10.934,15.296c4.219-11.54,8.323-22.188,17.72-36.009L643.934,350.743z M654.459,776.732
	l-10.609,47.595l-94.622,25.119l-88.284-23.861c-4.455-17.762-8.797-33.873-11.883-44.777c-0.027-0.1-0.057-0.168-0.084-0.266
	c-0.47-1.749-0.902-3.357-1.296-4.822l41.648,1.639l5.306-3.17c13.975-8.406,27.394-17.229,40.909-26.291
	c4.301-0.992,8.295-1.801,12.356-1.941c2.989-0.111,6.479,0.238,10.501,1.09c18.039,11.195,61.615,34.809,61.615,34.809
	L654.459,776.732z M228.831,886.459c-4.775,3.043-11.282,6.814-17.844,10.695c12.497-22.939,25.495-48.018,24.965-67.535
	l-1.466-34.461l-24.183,24.477c-5.361,5.098-18.738,13.236-31.261,19.199c11.811-22.215,26.082-51.646,26.709-77.994
	c26.348-46.299,82.672-69.547,131.75-77.449l0.936,9.66l0.015,0.461l0.516,7.395c0.015,1.85,0.084,3.541,0.643,5.186l6.674,12.539
	c-8.266,4.748-16.168,10.299-23.75,16.699c-39.709,33.537-63.264,81.611-66.545,135.924
	C249.3,874.381,240.867,879.102,228.831,886.459z M371.164,960.266l-29.391-9.887l10.389,28.959
	c2.749,7.287,4.732,14.98,5.877,22.701c-47.486-8.936-70.859-47.764-73.763-120.16l-0.112-4.076
	c2.611-63.641,37.88-102.75,57.68-119.602c6.464-5.418,13.067-9.844,19.617-13.586c0.99,1.396,1.885,2.68,2.681,4.426
	c5.878,8.824,11.589,17.83,16.015,25.105l0.683,0.949c-37.795,23.205-72.589,63.123-80.631,119.086l29.53,4.313
	c7.986-55.57,48.938-91.537,85.101-107.83c2.178,0.586,4.369,0.936,6.479,1.283c1.34,5.209,3.127,11.422,4.72,18.068
	c-20.092,30.605-42.544,87.67-37.211,139.33c0.811,6.801,2.192,13.25,3.673,19.631C385.712,965.78,378.732,962.708,371.164,960.266z
	 M481.634,980.258c-4.579,7.191-3.519,15.275-2.388,24.016c2.039,15.262,2.095,25.021-5.654,31.625
	c-5.18-8.238-22.534-26.486-22.534-26.486c-18.809-15.066-29.74-37.139-32.562-63.18c-3.434-33.664,7.261-69.574,19.437-95.838
	l15.261,4.189l13.041,3.447c-7.344,28.652-7.763,73.791,15.163,116.434c0.712,1.131,1.256,2.262,2.012,3.406L481.634,980.258z
	 M646.866,1041.247c-2.025,0-3.993-0.139-5.739-0.195c-65.707-11.1-110.583-38.201-133.467-80.73
	c-19.003-35.758-17.648-73.064-12.441-94.539l37.002,9.941c-0.502,13.082,1.257,25.955,3.853,38.215
	c5.488,22.969,16.114,44.4,30.146,62.664c22.982,29.809,54.397,50.375,87.586,64.24
	C651.487,1040.926,649.185,1041.247,646.866,1041.247z M658.902,1040.297c-32.785-17.453-61.994-41.482-80.424-72.199
	c-10.863-18.123-17.774-37.965-20.162-58.041c-1.494-10.668-1.466-21.656,0.14-32.143l37.978-9.996
	c-0.027,1.996-0.293,3.992-0.027,5.695c0.181,9.928,1.242,19.619,2.638,29.197c3.143,18.861,8.252,37.277,14.886,55.18
	c11.447,30.744,28.888,59.871,52.692,81.875C664.165,1040.129,661.372,1040.129,658.902,1040.297z M628.184,953.661
	c-4.05-17.453-6.353-35.436-6.675-53.002c-0.432-13.99,0.419-29.166,3.883-40.463l25.12-6.66c5.304,25.553,9.604,58,6.615,99.176
	l-0.193-0.027l-0.531,15.414c-0.866,17.215,2.107,46.076,11.449,70.453C647.773,1013.727,635.096,984.043,628.184,953.661z
	 M717.417,966.674c-9.2-4.816-19.212-8.463-30.382-10.695c4.344-59.494-5.417-102.596-12.538-131.916l4.999-21.797
	C704.824,843.581,727.681,901.317,717.417,966.674z M752.659,996.581c-2.374-3.504-5.473-6.938-8.754-10.332
	c18.528-82.307-10.026-154.074-41.176-203.195l8.643-1.479c1.633,1.215,2.863,2.332,4.371,3.658
	c24.657,20.789,67.494,57.428,74.237,130.311l0.503,18.039C791.069,979.784,779.467,992.282,752.659,996.581z M878.6,925.764
	c-3.923-51.131-22.55-95.727-57.356-135.547l-22.62,19.604c29.894,34.082,46.188,72.074,49.859,115.455
	c-8.782-0.854-18.262-2.164-28.176-4.176c-5.318-90.406-58.153-135.813-85.156-158.682c-2.933-2.346-5.433-4.525-7.623-6.564
	l-1.146,1.271l9.83-29.768l5.166-17.355c8.294,6.883,18.738,15.094,31.681,25.076c32.715,25.412,73.345,57.357,94.818,82.309
	c14.674,17.105,25.956,42.223,35.953,66.713l0.336-0.141c0.543,2.836,1.062,5.949,2.345,8.881
	c2.234,4.623,5.265,10.223,8.127,15.498c0.545,1.285,1.327,2.807,2.08,4.021C906.468,921.059,892.074,924.563,878.6,925.764z
	 M954.192,845.368c-9.229,4.021-21.586,6.395-28.275,7.695c-0.921,0.402-1.535,0.684-2.442,0.879
	c-8.949-20.189-19.407-40.311-32.854-56.031c-23.484-27.213-65.385-59.961-99.16-86.449c-15.68-12.008-32.351-25.09-42.391-34.088
	l2.165-16.379c9.814,5.906,22.004,11.869,36.189,18.682c44.346,21.488,104.578,50.838,126.401,102.525l-0.041,0.42l3.14,5.445
	c4.4,7.75,8.632,17.594,6.271,31.777l-1.773,9.691l8.322,5.389C935.385,838.542,943.385,842.002,954.192,845.368z M1053.953,588.67
	c-0.754,6.924-2.638,12.865-4.439,17.508c-6.939-5.795-16.002-8.971-27.06-8.971c-8.824,0-18.165,1.92-26.207,4.363
	c-18.584-18.277-50.557-26.256-81.47-34.123c-36.736-9.203-74.687-18.633-83.482-42.146l-27.813,10.457
	c14.31,38.209,62.049,50.16,103.95,60.771c30.55,7.652,61.895,15.568,71.626,31.213c4.581,18.912,2.165,26.801-5.667,40.805
	c-17.286-9.871-38.705-17.809-60.626-25.928c-39.163-14.359-79.585-29.35-88.66-53.713l-28.079,10.453
	c14.046,37.25,61.016,54.627,106.546,71.367c27.353,10.039,55.111,20.537,69.756,33.594c1.731,2.08,3.756,4.182,5.655,6.4
	c0.099,0.174,0.153,0.301,0.252,0.412c1.075,1.494,2.164,3.17,2.905,4.719l0.36-0.193c9.733,13.619,15.78,26.275,17.468,39.164
	c0.979,6.129,1.146,12.592,1.062,18.359c-8.209-4.203-16.279-8.35-19.533-10.191c-11.211-7.609-31.108-13.879-44.945-13.879
	l-5.444,0.041c-30.745-48.498-87.07-75.738-129.643-96.348c-18.303-8.789-38.45-18.639-44.776-25.57l3.547-27.619l33.761-68.639
	l14.787-29.663c85.086-22.04,169.949,45.831,195.193,68.409l19.855-22.158c-26.263-23.646-110.248-90.386-201.729-79.181
	l4.412-12.225l-0.015-0.418l-0.026-0.517c68.399-24.916,152.663,17.901,190.558,53.741l0.992,1.152
	c4.579,4.573,8.712,9.306,12.384,14.039c0.74,0.789,1.604,1.752,1.997,2.527l0.083-0.055
	C1047.936,547.788,1055.67,568.977,1053.953,588.67z M1032.787,471.888l-12.636-1.494l-0.686,2.108
	c-49.049-37.921-129.752-69.616-199.452-46.885c-11.114-47.988-17.746-77.191-20.398-88.655l-2.262-10.765l-8.687-6.667
	c-5.36-4.174-16.196-12-29.223-21.348c31.64-29.719,71.362-35.576,122.437-17.963l9.731-28.281
	c-63.892-21.844-116.264-11.972-156.56,28.574c-30.688-21.9-63.432-44.965-69.575-49.238l-10.138-7.191l-12.522,2.227
	l-90.938,16.553l-81.051-33.901l-15.708-6.618l-13.836,10.353l-96.145,72.654c-59.718-26.264-148.812-31.074-210.065,13.969
	l17.606,24.071c47.627-34.857,115.162-33.063,164.226-16.755l-11.03,8.454l-8.727,6.563l-2.359,10.562l-1.592,6.255
	c-54.775-7.393-106.854,3.233-144.274,30.683l17.608,24.078c38.451-28.267,85.812-29.642,120.02-25.537l-15.038,65.777
	c-37.6,21.194-92.571,34.277-147.666,13.977l-10.457,27.979c22.451,8.217,44.929,11.841,67.201,11.841
	c34.276,0,67.354-8.734,94.818-21.948l23.834,62.69l11.016,26.326c-51.087-4.6-128.355,10.338-179.192,53.84
	c-9.258,8.104-17.523,16.969-24.449,26.541c-19.56-18.744-46.327-31.316-62.118-38.689c-0.098-0.184-0.209-0.225-0.572-0.271
	c4.006-14.738,19.547-48.582,67.382-73.631l20.483-10.751l-18.208-14.249c-9.145-7.253-53.279-34.536-83.228-38.013
	c1.087-7.888,3.824-18.123,8.111-24.434c5.823-8.028,14.73-14.884,26.654-19.959c16.308-6.849,34.698-10.137,55.919-10.137
	l25.65,0.503l-10.653-35.08l-6.814-2.688c-9.091-3.526-16.756-7.526-23.485-12.35c-8.643-6.178-15.107-12.957-19.492-20.17
	c5.627-1.088,10.696-1.953,15.331-2.568l41.064-5.494l-34.976-21.921c-8.476-5.32-14.801-10.255-20.148-15.757
	c-3.323-3.7-5.641-8.698-5.989-13.124c-0.532-3.379,0.167-6.346,1.073-8.594c7.904,2.876,17.719,4.391,29.42,4.391
	c8.098,0,14.283-0.726,14.283-0.726l10.012-1.368l2.722-9.795c8.74-33.81,28.805-60.073,60.011-78.12l23.875-13.941l-24.755-12.301
	c-0.014-0.007-0.014-0.007-0.028-0.021c15.526,1.236,34.598,1.334,47.654-0.831l7.665-1.235l0.125-0.377
	c30.564-6.088,79.907-2.298,107.762,32.783l23.332-18.507c-28.387-36.023-74.184-48.484-114.27-46.411
	c16.364-26.2,35.884-41.803,68.025-41.803c12.539,0,27.297,2.674,43.144,7.623l-0.182,0.768
	c39.025,13.774,63.865,35.577,80.41,70.734l27.072-12.853c-15.441-32.734-37.796-56.498-68.457-73.128
	c29.46-19.589,63.164-29.474,102.428-29.866l5.669-0.041l4.259-3.868c4.551-4.244,18.43-8.544,35.911-8.544
	c2.388,0,4.427,0.16,6.548,0.404c-29.796,28.058-59.786,79.467-53.811,146.117l29.698-2.625
	c-6.716-77.651,43.438-124.384,61.364-134.64l-0.014-0.041l1.41-0.63c5.724-3.286,17.007-5.424,28.847-5.424
	c6.758,0,13.292,0.671,17.438,1.858c9.747,2.988,26.333,11.33,28.498,24.539c-55.193,11.295-106.253,44.512-105.248,111.287
	l29.782-0.468c-1.146-78.343,95.978-84.877,116.404-85.393c13.486,2.61,30.787,4.558,52.399,7.035
	c21.712,2.368,45.589,5.042,64.339,9.084c-8.587,13.404-19.686,28.169-24.462,34.445l-16.991,21.23l27.018,2.883
	c21.11,2.269,55.333,9.641,76.122,20.979c-15.708,11.686-31.093,28.595-31.149,41.957c-0.028,7.756,4.384,14.444,11.629,17.516
	c22.075,9.41,67.691,20.057,92.084,25.278l-14.285,44.073l4.875,6.304c6.448,8.419,16.712,24.113,26.583,42.404
	c-4.595-2.688-9.242-5.481-14.213-8.469c-42.141-25.167-94.498-56.638-164.7-23.373l12.858,27.073
	c55.793-26.486,96.928-1.773,136.51,21.921c16.337,9.809,31.904,18.996,48.115,24.532c5.069,14.627,8.225,29.104,7.161,41.427
	l-0.906,10.123l8.938,4.502c1.968,0.993,12.747,6.346,25.955,10.968C1050.003,470.464,1041.36,472.782,1032.787,471.888z"/>
</svg>
